<svg xmlns="http://www.w3.org/2000/svg" version="1.1" xmlns:xlink="http://www.w3.org/1999/xlink" xmlns:svgjs="http://svgjs.dev/svgjs" viewBox="0 0 1.2092306212875479 1.2809619567551989"><g transform="matrix(1,0,0,1,0.10370635730234601,0.10370635730234601)"><rect width="1.2809619567551989" height="1.2809619567551989" x="-0.1395720250361715" y="-0.10370635730234601" fill="#ffffff"></rect><g><path d=" M 0.5373938166226779 0.18799708870871948 Q 0.5273938166226779 0.18799708870871948 0.515893816622678 0.18599708870871948 Q 0.5043938166226779 0.18399708870871948 0.5043938166226779 0.17199708870871946 Q 0.5043938166226779 0.1669970887087195 0.5153938166226779 0.15649708870871948 Q 0.5263938166226779 0.14599708870871947 0.5393938166226779 0.13649708870871946 Q 0.552393816622678 0.12699708870871948 0.558393816622678 0.12699708870871948 Q 0.565393816622678 0.12699708870871948 0.5648938166226779 0.13399708870871946 Q 0.564393816622678 0.14099708870871946 0.564393816622678 0.14899708870871947 Q 0.564393816622678 0.15299708870871948 0.559393816622678 0.16249708870871948 Q 0.554393816622678 0.17199708870871946 0.5483938166226779 0.17999708870871947 Q 0.5423938166226779 0.18799708870871948 0.5373938166226779 0.18799708870871948" fill="#ffffff" fill-rule="nonzero"></path></g><g clip-path="url(#SvgjsClipPath1134)"><g clip-path="url(#a956fa094-1d8f-469f-91a2-9462d39487718f0f13b5-c6cb-4342-b500-9c434f69bd64)"><path d=" M 0.1974003854276564 0.5240113035811228 L 0.25515684350761214 0.5242186667167522 L 0.2559280479783236 0.4990811288481555 C 0.2580040092574894 0.43135959064362955 0.2950451230803599 0.3695350872287428 0.3538360669155902 0.3356580086663741 L 0.36908075226865616 0.3268741994380296 L 0.34026193626192036 0.2770604484295397 L 0.1974003854276564 0.3593766235057767 Z" fill="none" transform="matrix(1,0,0,1,0,0)" fill-rule="nonzero" stroke-dasharray="none" stroke-miterlimit="10" stroke-linejoin="miter" stroke-linecap="butt" stroke-width="0.00698976861671981" stroke="#231f20"></path></g><g clip-path="url(#a956fa094-1d8f-469f-91a2-9462d39487718f0f13b5-c6cb-4342-b500-9c434f69bd64)"><path d=" M 0.30699529749207854 0.4556257373580086 C 0.32065330536914904 0.4635125262805408 0.3381184072194596 0.4588317112302107 0.34600519614199177 0.4451737033531402 C 0.35388965514165177 0.43151569547606966 0.34921117001419394 0.41405059362575913 0.33555316213712344 0.406163804703227 C 0.3218928243371807 0.39827934570356704 0.3044277224868701 0.40295783083102477 0.2965432634872102 0.4166158387080953 C 0.28865647456467797 0.430276176508038 0.29333728961500805 0.44773894843547635 0.30699529749207854 0.4556257373580086 Z" fill="none" transform="matrix(1,0,0,1,0,0)" fill-rule="nonzero" stroke-dasharray="none" stroke-miterlimit="10" stroke-linejoin="miter" stroke-linecap="butt" stroke-width="0.00698976861671981" stroke="#231f20"></path></g><g clip-path="url(#a956fa094-1d8f-469f-91a2-9462d39487718f0f13b5-c6cb-4342-b500-9c434f69bd64)"><path d=" M 0.329150534084208 0.2578013059676045 L 0.3005087922157625 0.2075588491506225 L 0.27835355562363295 0.21951601333095783 C 0.2187029233472033 0.25172140065204224 0.14660203702001626 0.25061402958084644 0.08796856796429096 0.2165919601262967 L 0.07275417160856422 0.2077685422091241 L 0.043993603673634446 0.2578013059676045 L 0.18657090391748513 0.34047861908903865 Z" fill="none" transform="matrix(1,0,0,1,0,0)" fill-rule="nonzero" stroke-dasharray="none" stroke-miterlimit="10" stroke-linejoin="miter" stroke-linecap="butt" stroke-width="0.00698976861671981" stroke="#231f20"></path></g><g clip-path="url(#a956fa094-1d8f-469f-91a2-9462d39487718f0f13b5-c6cb-4342-b500-9c434f69bd64)"><path d=" M 0.21512876856253008 0.1974399941164845 C 0.21512876856253008 0.18166874619429238 0.20234448176254952 0.1688821294714396 0.18657090391748515 0.1688821294714396 C 0.17079965599529304 0.1688821294714396 0.1580153691953125 0.18166874619429238 0.1580153691953125 0.1974399941164845 C 0.1580153691953125 0.21321124203867664 0.17079965599529306 0.2259978587615294 0.18657090391748515 0.2259978587615294 C 0.20234448176254952 0.2259978587615294 0.21512876856253008 0.21321124203867664 0.21512876856253008 0.1974399941164845 Z" fill="none" transform="matrix(1,0,0,1,0,0)" fill-rule="nonzero" stroke-dasharray="none" stroke-miterlimit="10" stroke-linejoin="miter" stroke-linecap="butt" stroke-width="0.00698976861671981" stroke="#231f20"></path></g><g clip-path="url(#a956fa094-1d8f-469f-91a2-9462d39487718f0f13b5-c6cb-4342-b500-9c434f69bd64)"><path d=" M 0.032551352448064154 0.27700686020347826 L 0.003494884308359906 0.3268206112119681 L 0.0249231849643506 0.3400569030491632 C 0.08264702412409503 0.37571171276305093 0.11777294134598432 0.43863826969650715 0.11777294134598432 0.5063900968983722 L 0.11777294134598432 0.5239577153550614 L 0.1754082434365836 0.5239577153550614 L 0.1754082434365836 0.3593230352797152 Z" fill="none" transform="matrix(1,0,0,1,0,0)" fill-rule="nonzero" stroke-dasharray="none" stroke-miterlimit="10" stroke-linejoin="miter" stroke-linecap="butt" stroke-width="0.00698976861671981" stroke="#231f20"></path></g><g clip-path="url(#a956fa094-1d8f-469f-91a2-9462d39487718f0f13b5-c6cb-4342-b500-9c434f69bd64)"><path d=" M 0.037253136804244344 0.40611254640003763 C 0.023595128927173838 0.41399933532256983 0.018914313876843804 0.43146210725000816 0.02680110279937599 0.44512244504995085 C 0.03468556179903594 0.4587804529270214 0.05215066364934651 0.4634589380544792 0.06581100144928924 0.4555744790548192 C 0.07946900932635977 0.44768769013228704 0.08414749445381756 0.4302225882819765 0.0762630354541576 0.41656458040490596 C 0.06837624653162543 0.4029065725278355 0.05091114468131486 0.39822575747750544 0.037253136804244344 0.40611254640003763 Z" fill="none" transform="matrix(1,0,0,1,0,0)" fill-rule="nonzero" stroke-dasharray="none" stroke-miterlimit="10" stroke-linejoin="miter" stroke-linecap="butt" stroke-width="0.00698976861671981" stroke="#231f20"></path></g><g clip-path="url(#a956fa094-1d8f-469f-91a2-9462d39487718f0f13b5-c6cb-4342-b500-9c434f69bd64)"><path d=" M 0.5077204828584212 0.00370224744398926 L 0.565476940938377 0.0034948843083599055 L 0.5662481454090884 0.028632422176956582 C 0.5683241066882542 0.09635396038148258 0.6053652205111247 0.1581784637963693 0.6641561643463549 0.19205554235873798 L 0.6794008496994209 0.20083935158708252 L 0.6505820336926852 0.2506531025955724 L 0.5077204828584212 0.16833692751933543 Z" fill="none" transform="matrix(1,0,0,1,0,0)" fill-rule="nonzero" stroke-dasharray="none" stroke-miterlimit="10" stroke-linejoin="miter" stroke-linecap="butt" stroke-width="0.00698976861671981" stroke="#231f20"></path></g><g clip-path="url(#a956fa094-1d8f-469f-91a2-9462d39487718f0f13b5-c6cb-4342-b500-9c434f69bd64)"><path d=" M 0.6173153949228434 0.07208548374423146 C 0.630973402799914 0.06419869482169926 0.6484385046502245 0.0688795098720293 0.6563252935727566 0.0825375177490998 C 0.6642097525724167 0.09619552562617031 0.6595312674449588 0.11366062747648088 0.6458732595678883 0.12154741639901308 C 0.6322129217679455 0.129431875398673 0.6147478199176349 0.12475339027121524 0.6068633609179751 0.11109538239414471 C 0.5989765719954429 0.09743504459420196 0.6036573870457729 0.07997227266676364 0.6173153949228434 0.07208548374423146 Z" fill="none" transform="matrix(1,0,0,1,0,0)" fill-rule="nonzero" stroke-dasharray="none" stroke-miterlimit="10" stroke-linejoin="miter" stroke-linecap="butt" stroke-width="0.00698976861671981" stroke="#231f20"></path></g><g clip-path="url(#a956fa094-1d8f-469f-91a2-9462d39487718f0f13b5-c6cb-4342-b500-9c434f69bd64)"><path d=" M 0.6394706315149731 0.2699122450575076 L 0.6108288896465275 0.3201547018744896 L 0.5886736530543979 0.30819753769415426 C 0.5290230207779683 0.27599215037306984 0.4569221344507812 0.27709952144426564 0.398288665395056 0.3111215908988154 L 0.38307426903932923 0.319945008815988 L 0.3543137011043994 0.2699122450575076 L 0.4968910013482501 0.18723493193607343 Z" fill="none" transform="matrix(1,0,0,1,0,0)" fill-rule="nonzero" stroke-dasharray="none" stroke-miterlimit="10" stroke-linejoin="miter" stroke-linecap="butt" stroke-width="0.00698976861671981" stroke="#231f20"></path></g><g clip-path="url(#a956fa094-1d8f-469f-91a2-9462d39487718f0f13b5-c6cb-4342-b500-9c434f69bd64)"><path d=" M 0.5254488659932949 0.33027122698575545 C 0.5254488659932949 0.34604480483081984 0.5126645791933143 0.35882909163080035 0.49689100134825004 0.35882909163080035 C 0.4811197534260579 0.35882909163080035 0.46833546662607733 0.34604480483081984 0.46833546662607733 0.33027122698575545 C 0.46833546662607733 0.31449764914069106 0.4811197534260579 0.30171336234071056 0.49689100134825004 0.30171336234071056 C 0.5126645791933143 0.3017110324178383 0.5254488659932949 0.31449764914069106 0.5254488659932949 0.33027122698575545 Z" fill="none" transform="matrix(1,0,0,1,0,0)" fill-rule="nonzero" stroke-dasharray="none" stroke-miterlimit="10" stroke-linejoin="miter" stroke-linecap="butt" stroke-width="0.00698976861671981" stroke="#231f20"></path></g><g clip-path="url(#a956fa094-1d8f-469f-91a2-9462d39487718f0f13b5-c6cb-4342-b500-9c434f69bd64)"><path d=" M 0.3428691199559568 0.2507020309758894 L 0.31381265181625256 0.20088827996739952 L 0.3352409524722432 0.18765198813020442 C 0.39296479163198766 0.1519971784163167 0.42809070885387696 0.08907062148286049 0.42809070885387696 0.021318794280995392 L 0.42809070885387696 0.0037511758243062307 L 0.4857260109444763 0.0037511758243062307 L 0.4857260109444763 0.1683858558996524 Z" fill="none" transform="matrix(1,0,0,1,0,0)" fill-rule="nonzero" stroke-dasharray="none" stroke-miterlimit="10" stroke-linejoin="miter" stroke-linecap="butt" stroke-width="0.00698976861671981" stroke="#231f20"></path></g><g clip-path="url(#a956fa094-1d8f-469f-91a2-9462d39487718f0f13b5-c6cb-4342-b500-9c434f69bd64)"><path d=" M 0.34757323423500924 0.12160100462507448 C 0.33391522635793874 0.11371421570254228 0.32923441130760867 0.09625144377510397 0.33712120023014086 0.08259110597516123 C 0.3450056592298008 0.06893309809809073 0.3624707610801114 0.06425461297063292 0.37613109888005414 0.07213907197029286 C 0.38978910675712464 0.08002586089282505 0.39446759188458247 0.09749096274313562 0.38658313288492246 0.11114897062020612 C 0.3786963439623903 0.12480697849727665 0.36123124211207974 0.12948546362473443 0.34757323423500924 0.12160100462507448 Z" fill="none" transform="matrix(1,0,0,1,0,0)" fill-rule="nonzero" stroke-dasharray="none" stroke-miterlimit="10" stroke-linejoin="miter" stroke-linecap="butt" stroke-width="0.00698976861671981" stroke="#231f20"></path></g><g clip-path="url(#a956fa094-1d8f-469f-91a2-9462d39487718f0f13b5-c6cb-4342-b500-9c434f69bd64)"><path d=" M 0.6677815243355605 0.26322303649130685 L 0.6964232662040061 0.21298290959719712 L 0.7185785027961356 0.2249377438546602 C 0.7782291350725653 0.25714313117574467 0.8503300213997523 0.25603576010454887 0.9089634904554775 0.22201369064999907 L 0.9241778868112043 0.21319027273282648 L 0.952938454746134 0.26322303649130685 L 0.8103588245794111 0.345900349612741 Z" fill="none" transform="matrix(1,0,0,1,0,0)" fill-rule="nonzero" stroke-dasharray="none" stroke-miterlimit="10" stroke-linejoin="miter" stroke-linecap="butt" stroke-width="0.00698976861671981" stroke="#231f20"></path></g><g clip-path="url(#a956fa094-1d8f-469f-91a2-9462d39487718f0f13b5-c6cb-4342-b500-9c434f69bd64)"><path d=" M 0.7818009599343662 0.20286405456305892 C 0.7818009599343662 0.1870928066408668 0.7945852467343467 0.17430851984088627 0.8103564946565389 0.17430851984088627 C 0.8261300725016032 0.17430851984088627 0.8389143593015838 0.1870928066408668 0.8389143593015838 0.20286405456305892 C 0.8389143593015838 0.21863530248525107 0.8261300725016032 0.23141958928523157 0.8103564946565389 0.23141958928523157 C 0.7945852467343467 0.23141958928523157 0.7818009599343662 0.21863530248525107 0.7818009599343662 0.20286405456305892 Z" fill="none" transform="matrix(1,0,0,1,0,0)" fill-rule="nonzero" stroke-dasharray="none" stroke-miterlimit="10" stroke-linejoin="miter" stroke-linecap="butt" stroke-width="0.00698976861671981" stroke="#231f20"></path></g><g clip-path="url(#a956fa094-1d8f-469f-91a2-9462d39487718f0f13b5-c6cb-4342-b500-9c434f69bd64)"><path d=" M 0.9641663530674583 0.2824122812670749 L 0.9932228212071625 0.33222603227556474 L 0.9717968504740441 0.34546232411275984 C 0.9140706813914276 0.3811171338266476 0.8789447641695382 0.4440436907601038 0.8789447641695382 0.5117955179619689 L 0.8789447641695382 0.5293631364186581 L 0.821309462078939 0.5293631364186581 L 0.821309462078939 0.36472845634331186 Z" fill="none" transform="matrix(1,0,0,1,0,0)" fill-rule="nonzero" stroke-dasharray="none" stroke-miterlimit="10" stroke-linejoin="miter" stroke-linecap="butt" stroke-width="0.00698976861671981" stroke="#231f20"></path></g><g clip-path="url(#a956fa094-1d8f-469f-91a2-9462d39487718f0f13b5-c6cb-4342-b500-9c434f69bd64)"><path d=" M 0.959464568711278 0.4115133076178899 C 0.9731225765883487 0.4194000965404221 0.9778033916386786 0.43686286846786043 0.9699166027161465 0.4505232062678031 C 0.9620321437164866 0.4641812141448737 0.9445670418661759 0.46885969927233145 0.9309067040662333 0.46097524027267145 C 0.9172486961891627 0.45308845135013937 0.9125702110617049 0.4356233494998288 0.9204546700613648 0.4219653416227582 C 0.9283414589838971 0.4083073337456878 0.9458065608342076 0.40362651869535765 0.959464568711278 0.4115133076178899 Z" fill="none" transform="matrix(1,0,0,1,0,0)" fill-rule="nonzero" stroke-dasharray="none" stroke-miterlimit="10" stroke-linejoin="miter" stroke-linecap="butt" stroke-width="0.00698976861671981" stroke="#231f20"></path></g><g clip-path="url(#a956fa094-1d8f-469f-91a2-9462d39487718f0f13b5-c6cb-4342-b500-9c434f69bd64)"><path d=" M 0.7994058571570113 0.5296077783202433 L 0.7416493990770555 0.5298151414558726 L 0.7408781946063441 0.5046776035872759 C 0.7388022333271783 0.43695606538275 0.7017611195043078 0.3751315619678632 0.6429701756690775 0.3412544834054945 L 0.6277254903160115 0.33247067417715 L 0.6565443063227473 0.28265692316866015 L 0.7994058571570113 0.3649730982448971 Z" fill="none" transform="matrix(1,0,0,1,0,0)" fill-rule="nonzero" stroke-dasharray="none" stroke-miterlimit="10" stroke-linejoin="miter" stroke-linecap="butt" stroke-width="0.00698976861671981" stroke="#231f20"></path></g><g clip-path="url(#a956fa094-1d8f-469f-91a2-9462d39487718f0f13b5-c6cb-4342-b500-9c434f69bd64)"><path d=" M 0.6898109450925891 0.46122454202000107 C 0.6761529372155185 0.46911133094253327 0.658687835365208 0.4644305158922032 0.6508010464426759 0.45077250801513274 C 0.6429165874430158 0.4371145001380622 0.6475950725704737 0.4196493982877516 0.6612530804475442 0.41176260936521947 C 0.674913418247487 0.4038781503655595 0.6923785200977975 0.4085566354930173 0.7002629790974575 0.42221464337008785 C 0.7081497680199896 0.4358726512471583 0.7034689529696596 0.4533377530974689 0.6898109450925891 0.46122454202000107 Z" fill="none" transform="matrix(1,0,0,1,0,0)" fill-rule="nonzero" stroke-dasharray="none" stroke-miterlimit="10" stroke-linejoin="miter" stroke-linecap="butt" stroke-width="0.00698976861671981" stroke="#231f20"></path></g><g clip-path="url(#a956fa094-1d8f-469f-91a2-9462d39487718f0f13b5-c6cb-4342-b500-9c434f69bd64)"><path d=" M 0.043553248250781135 0.8135181999941684 L 0.07219499011922667 0.8637583268882781 L 0.09435022671135623 0.851803492630815 C 0.15400085898778593 0.8195981053097305 0.22610174531497296 0.8207054763809265 0.2847352143706982 0.8547275458354762 L 0.29994961072642495 0.8635509637526487 L 0.3287101786613547 0.8135181999941684 L 0.18613287841750406 0.7308408868727342 Z" fill="none" transform="matrix(1,0,0,1,0,0)" fill-rule="nonzero" stroke-dasharray="none" stroke-miterlimit="10" stroke-linejoin="miter" stroke-linecap="butt" stroke-width="0.00698976861671981" stroke="#231f20"></path></g><g clip-path="url(#a956fa094-1d8f-469f-91a2-9462d39487718f0f13b5-c6cb-4342-b500-9c434f69bd64)"><path d=" M 0.15757501377245917 0.8738771819224164 C 0.15757501377245917 0.8896484298446086 0.1703593005724397 0.9024327166445891 0.18613054849463181 0.9024327166445891 C 0.2019041263396962 0.9024327166445891 0.2146884131396767 0.8896484298446086 0.2146884131396767 0.8738771819224164 C 0.2146884131396767 0.8581059340002242 0.2019041263396962 0.8453216472002436 0.18613054849463181 0.8453216472002436 C 0.1703593005724397 0.8453216472002436 0.15757501377245917 0.8581059340002242 0.15757501377245917 0.8738771819224164 Z" fill="none" transform="matrix(1,0,0,1,0,0)" fill-rule="nonzero" stroke-dasharray="none" stroke-miterlimit="10" stroke-linejoin="miter" stroke-linecap="butt" stroke-width="0.00698976861671981" stroke="#231f20"></path></g><g clip-path="url(#a956fa094-1d8f-469f-91a2-9462d39487718f0f13b5-c6cb-4342-b500-9c434f69bd64)"><path d=" M 0.3399380769826789 0.7943336150641448 L 0.36899454512238317 0.744519864055655 L 0.34756857438926475 0.73128357221846 C 0.28984240530664807 0.6956287625045722 0.25471648808475883 0.6327022055711159 0.25471648808475883 0.5649503783692509 L 0.25471648808475883 0.5473827599125617 L 0.1970811859941595 0.5473827599125617 L 0.1970811859941595 0.7120174399879078 Z" fill="none" transform="matrix(1,0,0,1,0,0)" fill-rule="nonzero" stroke-dasharray="none" stroke-miterlimit="10" stroke-linejoin="miter" stroke-linecap="butt" stroke-width="0.00698976861671981" stroke="#231f20"></path></g><g clip-path="url(#a956fa094-1d8f-469f-91a2-9462d39487718f0f13b5-c6cb-4342-b500-9c434f69bd64)"><path d=" M 0.3352362926264988 0.6652279288675854 C 0.3488943005035693 0.6573411399450533 0.3535751155538993 0.6398783680176149 0.3456883266313671 0.6262180302176722 C 0.33780386763170717 0.6125600223406017 0.3203387657813966 0.6078815372131439 0.30667842798145384 0.6157659962128039 C 0.29302042010438334 0.6236527851353361 0.28834193497692556 0.6411178869856465 0.2962263939765855 0.6547758948627171 C 0.3041131828991177 0.6684339027397875 0.32157828474942823 0.6731147177901177 0.3352362926264988 0.6652279288675854 Z" fill="none" transform="matrix(1,0,0,1,0,0)" fill-rule="nonzero" stroke-dasharray="none" stroke-miterlimit="10" stroke-linejoin="miter" stroke-linecap="butt" stroke-width="0.00698976861671981" stroke="#231f20"></path></g><g clip-path="url(#a956fa094-1d8f-469f-91a2-9462d39487718f0f13b5-c6cb-4342-b500-9c434f69bd64)"><path d=" M 0.17517991099510413 0.547133458165232 L 0.11742345291514833 0.5469260950296027 L 0.11665224844443693 0.5720636328981994 C 0.11457628716527113 0.6397851711027253 0.0775351733424006 0.701609674517612 0.01874422950717031 0.7354867530799807 L 0.0034995441541043875 0.7442705623083252 L 0.032318360160840165 0.7940843133168152 L 0.17517991099510413 0.7117681382405782 Z" fill="none" transform="matrix(1,0,0,1,0,0)" fill-rule="nonzero" stroke-dasharray="none" stroke-miterlimit="10" stroke-linejoin="miter" stroke-linecap="butt" stroke-width="0.00698976861671981" stroke="#231f20"></path></g><g clip-path="url(#a956fa094-1d8f-469f-91a2-9462d39487718f0f13b5-c6cb-4342-b500-9c434f69bd64)"><path d=" M 0.06558499893068198 0.6155190243883464 C 0.051926991053611475 0.6076322354658142 0.034461889203300906 0.6123130505161443 0.026575100280768725 0.6259710583932148 C 0.01869064128110878 0.6396290662702854 0.023369126408566573 0.6570941681205958 0.03702713428563709 0.664980957043128 C 0.05068747208557984 0.6728654160427879 0.06815257393589039 0.6681869309153302 0.07603703293555034 0.6545289230382597 C 0.08392382185808252 0.6408709151611892 0.0792430068077525 0.6234058133108786 0.06558499893068198 0.6155190243883464 Z" fill="none" transform="matrix(1,0,0,1,0,0)" fill-rule="nonzero" stroke-dasharray="none" stroke-miterlimit="10" stroke-linejoin="miter" stroke-linecap="butt" stroke-width="0.00698976861671981" stroke="#231f20"></path></g><g clip-path="url(#a956fa094-1d8f-469f-91a2-9462d39487718f0f13b5-c6cb-4342-b500-9c434f69bd64)"><path d=" M 0.6729329838060829 0.8130988138771652 L 0.7015677359059117 0.8633203013882971 L 0.723720642575169 0.8513701269765784 C 0.7833608498369187 0.8191759485626878 0.8554451628394919 0.8202832819141967 0.9140683514685551 0.8542941801812396 L 0.9292804179014097 0.8631129382526677 L 0.958036325990595 0.8130988138771652 L 0.8154846548983389 0.7304517897530701 Z" fill="none" transform="matrix(1,0,0,1,0,0)" fill-rule="nonzero" stroke-dasharray="none" stroke-miterlimit="10" stroke-linejoin="miter" stroke-linecap="butt" stroke-width="0.00698976861671981" stroke="#231f20"></path></g><g clip-path="url(#a956fa094-1d8f-469f-91a2-9462d39487718f0f13b5-c6cb-4342-b500-9c434f69bd64)"><path d=" M 0.7869477595591442 0.8734647855740298 C 0.7869477595591442 0.8892243838818609 0.799725056590508 0.9020016809132246 0.8154846548983389 0.9020016809132246 C 0.8312442532061699 0.9020016809132246 0.8440215502375338 0.8892243838818609 0.8440215502375338 0.8734647855740298 C 0.8440215502375338 0.8577051872661989 0.8312442532061699 0.844927890234835 0.8154846548983389 0.844927890234835 C 0.799725056590508 0.844927890234835 0.7869477595591442 0.8577051872661989 0.7869477595591442 0.8734647855740298 Z" fill="none" transform="matrix(1,0,0,1,0,0)" fill-rule="nonzero" stroke-dasharray="none" stroke-miterlimit="10" stroke-linejoin="miter" stroke-linecap="butt" stroke-width="0.00698976861671981" stroke="#231f20"></path></g><g clip-path="url(#a956fa094-1d8f-469f-91a2-9462d39487718f0f13b5-c6cb-4342-b500-9c434f69bd64)"><path d=" M 0.9692735440034083 0.7938909297184192 L 0.9983230223744957 0.7440864984014183 L 0.9769017114871217 0.7308525364870956 C 0.9191918518646108 0.6952047165418245 0.8840752543342104 0.6322898092227295 0.8840752543342104 0.5645519615580978 L 0.8840752543342104 0.5469890029471531 L 0.8264562617037169 0.5469890029471531 L 0.8264562617037169 0.7115887341794157 Z" fill="none" transform="matrix(1,0,0,1,0,0)" fill-rule="nonzero" stroke-dasharray="none" stroke-miterlimit="10" stroke-linejoin="miter" stroke-linecap="butt" stroke-width="0.00698976861671981" stroke="#231f20"></path></g><g clip-path="url(#a956fa094-1d8f-469f-91a2-9462d39487718f0f13b5-c6cb-4342-b500-9c434f69bd64)"><path d=" M 0.9645787494158449 0.6647992230590933 C 0.9782274376014264 0.6569194239051778 0.9829035928060119 0.6394659716692285 0.9750237936520966 0.625817283483647 C 0.9671439944981811 0.6121685952980653 0.9496905422622316 0.6074924400934798 0.93604185407665 0.6153722392473953 C 0.9223931658910686 0.6232520384013107 0.917717010686483 0.6407054906372601 0.9255968098403985 0.6543541788228416 C 0.933476608994314 0.6680028670084232 0.9509300612302632 0.6726790222130088 0.9645787494158449 0.6647992230590933 Z" fill="none" transform="matrix(1,0,0,1,0,0)" fill-rule="nonzero" stroke-dasharray="none" stroke-miterlimit="10" stroke-linejoin="miter" stroke-linecap="butt" stroke-width="0.00698976861671981" stroke="#231f20"></path></g><g clip-path="url(#a956fa094-1d8f-469f-91a2-9462d39487718f0f13b5-c6cb-4342-b500-9c434f69bd64)"><path d=" M 0.8045107181700889 0.5467420311226957 L 0.7467705695502388 0.5465346679870663 L 0.7459993650795274 0.5716675460099185 C 0.7439234038003616 0.639375104677211 0.7068939395918522 0.7011902884006089 0.6481169752938554 0.7350580472714886 L 0.632876949786534 0.7438418564998331 L 0.661688776024653 0.793646287816834 L 0.8045107181700889 0.7113440922778306 Z" fill="none" transform="matrix(1,0,0,1,0,0)" fill-rule="nonzero" stroke-dasharray="none" stroke-miterlimit="10" stroke-linejoin="miter" stroke-linecap="butt" stroke-width="0.00698976861671981" stroke="#231f20"></path></g><g clip-path="url(#a956fa094-1d8f-469f-91a2-9462d39487718f0f13b5-c6cb-4342-b500-9c434f69bd64)"><path d=" M 0.6949251257971557 0.6151229375000656 C 0.6812764376115742 0.6072431383461502 0.6638229853756248 0.6119192935507358 0.6559431862217094 0.6255679817363172 C 0.6480633870677939 0.6392166699218989 0.6527395422723794 0.6566701221578483 0.666388230457961 0.6645499213117637 C 0.6800369186435425 0.6724297204656791 0.6974903708794918 0.6677535652610935 0.7053701700334074 0.654104877075512 C 0.7132499691873229 0.6404561888899305 0.7085738139827373 0.6230027366539811 0.6949251257971557 0.6151229375000656 Z" fill="none" transform="matrix(1,0,0,1,0,0)" fill-rule="nonzero" stroke-dasharray="none" stroke-miterlimit="10" stroke-linejoin="miter" stroke-linecap="butt" stroke-width="0.00698976861671981" stroke="#231f20"></path></g><g clip-path="url(#a956fa094-1d8f-469f-91a2-9462d39487718f0f13b5-c6cb-4342-b500-9c434f69bd64)"><path d=" M 0.5116324233609121 1.0698469947065172 L 0.5693888814408679 1.0700543578421466 L 0.5701600859115793 1.0449168199735501 C 0.5722360471907451 0.9771952817690239 0.6092771610136156 0.9153707783541374 0.6680681048488459 0.8814936997917686 L 0.6833127902019118 0.872709890563424 L 0.6544939741951761 0.8228961395549341 L 0.5116324233609121 0.9052123146311711 Z" fill="none" transform="matrix(1,0,0,1,0,0)" fill-rule="nonzero" stroke-dasharray="none" stroke-miterlimit="10" stroke-linejoin="miter" stroke-linecap="butt" stroke-width="0.00698976861671981" stroke="#231f20"></path></g><g clip-path="url(#a956fa094-1d8f-469f-91a2-9462d39487718f0f13b5-c6cb-4342-b500-9c434f69bd64)"><path d=" M 0.6212296653482065 1.001461428483403 C 0.6348876732252771 1.0093482174059352 0.6523527750755876 1.004667402355605 0.6602395639981198 0.9910093944785344 C 0.6681240229977797 0.9773513866014641 0.6634455378703219 0.9598862847511535 0.6497875299932514 0.9519994958286212 C 0.6361271921933086 0.9441150368289613 0.618662090342998 0.9487935219564191 0.6107776313433382 0.9624515298334897 C 0.6028908424208059 0.9761118676334325 0.607571657471136 0.9935746395608707 0.6212296653482065 1.001461428483403 Z" fill="none" transform="matrix(1,0,0,1,0,0)" fill-rule="nonzero" stroke-dasharray="none" stroke-miterlimit="10" stroke-linejoin="miter" stroke-linecap="butt" stroke-width="0.00698976861671981" stroke="#231f20"></path></g><g clip-path="url(#a956fa094-1d8f-469f-91a2-9462d39487718f0f13b5-c6cb-4342-b500-9c434f69bd64)"><path d=" M 0.6433825720174637 0.803636997092999 L 0.6147408301490183 0.7533968701988892 L 0.5925855935568887 0.7653517044563524 C 0.532934961280459 0.7975570917774367 0.460834074953272 0.796449720706241 0.40220060589754675 0.7624276512516912 L 0.38698620954182 0.7536042333345185 L 0.3582256416068902 0.803636997092999 L 0.5008029418507409 0.8863143102144332 Z" fill="none" transform="matrix(1,0,0,1,0,0)" fill-rule="nonzero" stroke-dasharray="none" stroke-miterlimit="10" stroke-linejoin="miter" stroke-linecap="butt" stroke-width="0.00698976861671981" stroke="#231f20"></path></g><g clip-path="url(#a956fa094-1d8f-469f-91a2-9462d39487718f0f13b5-c6cb-4342-b500-9c434f69bd64)"><path d=" M 0.5293608064957858 0.7432756852418788 C 0.5293608064957858 0.7275044373196867 0.5165765196958052 0.714717820596834 0.5008029418507409 0.714717820596834 C 0.4850316939285488 0.714717820596834 0.4722474071285682 0.7275044373196867 0.4722474071285682 0.7432756852418788 C 0.4722474071285682 0.7590469331640709 0.4850316939285488 0.7718335498869238 0.5008029418507409 0.7718335498869238 C 0.5165765196958052 0.7718335498869238 0.5293608064957858 0.7590469331640709 0.5293608064957858 0.7432756852418788 Z" fill="none" transform="matrix(1,0,0,1,0,0)" fill-rule="nonzero" stroke-dasharray="none" stroke-miterlimit="10" stroke-linejoin="miter" stroke-linecap="butt" stroke-width="0.00698976861671981" stroke="#231f20"></path></g><g clip-path="url(#a956fa094-1d8f-469f-91a2-9462d39487718f0f13b5-c6cb-4342-b500-9c434f69bd64)"><path d=" M 0.34678106045844764 0.8228425513288727 L 0.31772459231874345 0.8726563023373626 L 0.3391528929747341 0.8858925941745577 C 0.39687673213447855 0.9215474038884455 0.4320026493563678 0.9844739608219016 0.4320026493563678 1.0522257880237667 L 0.4320026493563678 1.0697934064804557 L 0.4896379514469671 1.0697934064804557 L 0.4896379514469671 0.9051587264051097 Z" fill="none" transform="matrix(1,0,0,1,0,0)" fill-rule="nonzero" stroke-dasharray="none" stroke-miterlimit="10" stroke-linejoin="miter" stroke-linecap="butt" stroke-width="0.00698976861671981" stroke="#231f20"></path></g><g clip-path="url(#a956fa094-1d8f-469f-91a2-9462d39487718f0f13b5-c6cb-4342-b500-9c434f69bd64)"><path d=" M 0.3514851747375001 0.9519482375254321 C 0.3378271668604296 0.9598350264479644 0.33314635181009955 0.9772977983754025 0.34103314073263175 0.9909581361753453 C 0.3489175997322917 1.004616144052416 0.3663827015826022 1.0092946291798737 0.38004303938254497 1.0014101701802138 C 0.3937010472596155 0.9935233812576816 0.3983795323870733 0.9760582794073709 0.39049507338741335 0.9624002715303005 C 0.38260828446488115 0.94874226365323 0.36514318261457057 0.9440637785257722 0.3514851747375001 0.9519482375254321 Z" fill="none" transform="matrix(1,0,0,1,0,0)" fill-rule="nonzero" stroke-dasharray="none" stroke-miterlimit="10" stroke-linejoin="miter" stroke-linecap="butt" stroke-width="0.00698976861671981" stroke="#231f20"></path></g><g clip-path="url(#a956fa094-1d8f-469f-91a2-9462d39487718f0f13b5-c6cb-4342-b500-9c434f69bd64)"><path d=" M 0.6407823780920441 0.5455817295323202 L 0.6408056773207664 0.594326045942452 L 0.6203046859679273 0.5950366724184851 C 0.5650738642814797 0.5969541989423386 0.5145634663341899 0.6283662191058774 0.4867907856970899 0.6780681338164998 L 0.4795889940989963 0.6909549372228588 L 0.43903901643053245 0.6667540283489025 L 0.5065275623478344 0.5459801463434732 Z" fill="#000000" transform="matrix(1,0,0,1,0,0)" fill-rule="nonzero"></path></g><g clip-path="url(#a956fa094-1d8f-469f-91a2-9462d39487718f0f13b5-c6cb-4342-b500-9c434f69bd64)"><path d=" M 0.5845380399561719 0.6386504986639445 C 0.5908567907856866 0.6500414915863255 0.5870427070438299 0.6646431182266532 0.5760198419352627 0.6712647590295591 C 0.5649969768266956 0.677886399832465 0.5509382222155998 0.6740187278645468 0.544619471386085 0.6626254050192933 C 0.5383007205565704 0.6512344120969124 0.5421148042984271 0.6366327854565847 0.5531376694069943 0.6300111446536788 C 0.5641605345155615 0.6233918337736452 0.5782192891266572 0.6272595057415634 0.5845380399561719 0.6386504986639445" fill="#000000" transform="matrix(1,0,0,1,0,0)" fill-rule="nonzero"></path></g><g clip-path="url(#a956fa094-1d8f-469f-91a2-9462d39487718f0f13b5-c6cb-4342-b500-9c434f69bd64)"><path d=" M 0.422915950154632 0.6572013445727188 L 0.38219588811649463 0.6331029523051412 L 0.39195826495117997 0.6143377534921208 C 0.41825843433302445 0.5637877468560031 0.4175408180883745 0.5028789031299067 0.3900640376560489 0.4533424129432133 L 0.3829414634356114 0.4404975481485545 L 0.4236358963221542 0.4160566572187577 L 0.490404496071934 0.5364274625672895 Z" fill="#000000" transform="matrix(1,0,0,1,0,0)" fill-rule="nonzero"></path></g><g clip-path="url(#a956fa094-1d8f-469f-91a2-9462d39487718f0f13b5-c6cb-4342-b500-9c434f69bd64)"><path d=" M 0.3736054624865461 0.5606330312869903 C 0.3609003930642217 0.5606703100529461 0.3506324229662603 0.5500202326039374 0.35067203165508837 0.5368445187614205 C 0.35071164034391644 0.5236688049189037 0.3610425183594283 0.5129558195523445 0.3737475877817527 0.5129185407863885 C 0.38645265720407707 0.5128812620204327 0.3967206273020385 0.5235313394694414 0.39668101861321037 0.5367070533119583 C 0.39664373984725454 0.5498827671544751 0.38631053190887044 0.5605957525210344 0.3736054624865461 0.5606330312869903" fill="#000000" transform="matrix(1,0,0,1,0,0)" fill-rule="nonzero"></path></g><g clip-path="url(#a956fa094-1d8f-469f-91a2-9462d39487718f0f13b5-c6cb-4342-b500-9c434f69bd64)"><path d=" M 0.4397752720581603 0.40611720624578207 L 0.4804720348675753 0.38147128210322806 L 0.49121064938572917 0.3995258544402153 C 0.5201413016903325 0.44815833455247955 0.5713669859593997 0.4776551581150371 0.6266187769516974 0.4774897335911081 L 0.6409431427702286 0.47744779497940776 L 0.6407986875521499 0.5260895947831609 L 0.5065438718079401 0.5264903415171861 Z" fill="#000000" transform="matrix(1,0,0,1,0,0)" fill-rule="nonzero"></path></g><g clip-path="url(#a956fa094-1d8f-469f-91a2-9462d39487718f0f13b5-c6cb-4342-b500-9c434f69bd64)"><path d=" M 0.5453324277849905 0.4096167503998865 C 0.5517187463778002 0.39818614878867736 0.5658008002176184 0.3942345995973584 0.5767840566373574 0.4007910025598416 C 0.5877673130570964 0.40734507559945254 0.5914951896526803 0.42192573293393004 0.5851088710598706 0.433354004622267 C 0.5787202225441888 0.4447846062334761 0.5646404986272429 0.44873615542479506 0.5536549122846315 0.4421820823851841 C 0.5426716558648925 0.43562567942270086 0.5389461091921809 0.42104735201109555 0.5453324277849905 0.4096167503998865" fill="#000000" transform="matrix(1,0,0,1,0,0)" fill-rule="nonzero"></path></g></g></g><defs><clipPath id="SvgjsClipPath1134"><path d=" M 0 0 h 1.0018179066828559 v 1.0735492421505068 h -1.0018179066828559 Z"></path></clipPath><clipPath id="a956fa094-1d8f-469f-91a2-9462d39487718f0f13b5-c6cb-4342-b500-9c434f69bd64"><path d=" M -0.001279127656859724 1.0735608917648678 L 1.0030574256508873 1.0735608917648678 L 1.0030574256508873 -0.00001397953723344567 L -0.001279127656859724 -0.00001397953723344567 Z"></path></clipPath></defs></svg>