<svg xmlns="http://www.w3.org/2000/svg" viewBox="0 0 500 500" width="500" height="500" preserveAspectRatio="xMidYMid meet" style="width: 100%; height: 100%; transform: translate3d(0px, 0px, 0px);"><defs><clipPath id="__lottie_element_124"><rect width="500" height="500" x="0" y="0"></rect></clipPath></defs><g clip-path="url(#__lottie_element_124)"><g transform="matrix(1,0,0,1,270,258.1497497558594)" opacity="1" style="display: block;"><g opacity="1" transform="matrix(1,0,0,1,0,0)"><path stroke-linecap="round" stroke-linejoin="round" fill-opacity="0" stroke="#343a40" stroke-opacity="1" stroke-width="18" d=" M-143.50274658203125,15.314996719360352 C-143.50274658203125,15.314996719360352 -57.34691619873047,100.6106948852539 -22.03152084350586,107.1689682006836 C-0.43356338143348694,111.17938995361328 5.080348968505859,100.32643127441406 5.080348968505859,100.32643127441406 M-51.89649200439453,55.09170913696289 C5.094511985778809,97.72782135009766 12.152074813842773,105.87992095947266 25.998104095458984,96.95854949951172 C33.190155029296875,92.32420349121094 38.84579086303711,83.19273376464844 41.33698272705078,78.07683563232422 M-20.12314796447754,33.888980865478516 C36.867855072021484,76.52509307861328 46.20450210571289,88.39697265625 60.050533294677734,79.47560119628906 C67.24258422851562,74.84125518798828 72.8982162475586,65.7088851928711 75.38941192626953,60.592994689941406 M3.563530206680298,10.437016487121582 C60.554534912109375,53.0731315612793 72.46907806396484,67.75369262695312 86.31510162353516,58.83232498168945 C87.8135986328125,57.86651611328125 92.22160339355469,53.55134582519531 93.4150619506836,51.8690185546875 C100.24819946289062,42.237083435058594 94.74818420410156,30.080078125 85.4985580444336,22.705982208251953 C65.65095520019531,6.883334636688232 8.765358924865723,-34.368011474609375 -15.122600555419922,-42.06713104248047 C-15.122600555419922,-42.06713104248047 -50.31402587890625,-19.602462768554688 -71.6176986694336,-25.099088668823242 C-92.92137908935547,-30.595714569091797 -88.61847686767578,-51.65548324584961 -80.97567749023438,-62.29095458984375 C-73.33287811279297,-72.92642211914062 -35.56645202636719,-99.07124328613281 -14.35465145111084,-97.96887969970703 C21.887971878051758,-95.36209106445312 85.96685791015625,-78.21137237548828 85.96685791015625,-78.21137237548828 M-127.22505950927734,-87.29830169677734 C-127.22505950927734,-87.29830169677734 -47.02933883666992,-88.92800903320312 -47.02933883666992,-88.92800903320312 M116.85099792480469,25.31100082397461 C116.85099792480469,25.31100082397461 91.23474884033203,28.54477882385254 91.23474884033203,28.54477882385254"></path></g><g opacity="1" transform="matrix(1,0,0,1,0,0)"><path stroke-linecap="round" stroke-linejoin="round" fill-opacity="0" stroke="#343a40" stroke-opacity="1" stroke-width="18" d=" M-198.9559326171875,-117.683837890625 C-198.9559326171875,-117.683837890625 -202.5272216796875,31.88374137878418 -202.5272216796875,31.88374137878418 C-202.5272216796875,31.88374137878418 -149.36569213867188,31.43329429626465 -149.36569213867188,31.43329429626465 C-149.36569213867188,31.43329429626465 -122.69416046142578,-103.4867172241211 -122.69416046142578,-103.4867172241211 C-122.69416046142578,-103.4867172241211 -132.44931030273438,-108.77295684814453 -162.9617919921875,-115.01274871826172 C-183.84828186035156,-119.28369140625 -198.9559326171875,-117.683837890625 -198.9559326171875,-117.683837890625z M168.5908660888672,-117.44219207763672 C168.5908660888672,-117.44219207763672 168.62062072753906,32.30967330932617 168.62062072753906,32.30967330932617 C168.62062072753906,32.30967330932617 120.84783935546875,29.790422439575195 120.84783935546875,29.790422439575195 C120.84783935546875,29.790422439575195 84.72647094726562,-97.3808364868164 84.72647094726562,-97.3808364868164 C84.72647094726562,-97.3808364868164 100.43846893310547,-106.83478546142578 123.5562744140625,-112.87578582763672 C143.2790985107422,-118.0697250366211 168.5908660888672,-117.44219207763672 168.5908660888672,-117.44219207763672z"></path></g><g opacity="1" transform="matrix(1,0,0,1,0,0)"><path fill="#343a40" fill-opacity="1" d=" M-153.89613342285156,-79.37474060058594 C-154.03379821777344,-73.60887908935547 -158.81895446777344,-69.04691314697266 -164.58480834960938,-69.18458557128906 C-170.3506622314453,-69.32225799560547 -174.9134521484375,-74.10741424560547 -174.77578735351562,-79.8732681274414 C-174.6381072998047,-85.63912963867188 -169.85214233398438,-90.20109558105469 -164.08627319335938,-90.06342315673828 C-158.32041931152344,-89.92574310302734 -153.75845336914062,-85.14059448242188 -153.89613342285156,-79.37474060058594z M122.36154174804688,-82.42858123779297 C122.52162170410156,-76.66613006591797 127.32319641113281,-72.1247787475586 133.0856475830078,-72.28485870361328 C138.8480987548828,-72.4449462890625 143.3894500732422,-77.2458724975586 143.2293701171875,-83.0083236694336 C143.0692901611328,-88.7707748413086 138.2683563232422,-93.31195068359375 132.5059051513672,-93.15186309814453 C126.74345397949219,-92.99178314208984 122.20146179199219,-88.1910400390625 122.36154174804688,-82.42858123779297z"></path></g></g></g></svg>