<svg xmlns="http://www.w3.org/2000/svg" viewBox="0 0 500 500" width="500" height="500" preserveAspectRatio="xMidYMid meet" style="width: 100%; height: 100%; transform: translate3d(0px, 0px, 0px);"><defs><clipPath id="__lottie_element_8"><rect width="500" height="500" x="0" y="0"></rect></clipPath><mask id="__lottie_element_14" mask-type="alpha"><g transform="matrix(3.6797800064086914,-0.04023168981075287,0.04023168981075287,3.6797800064086914,252.6371612548828,248.8180389404297)" opacity="1" style="display: block;"><path fill="rgb(255,0,0)" fill-opacity="1" d=" M49.66699981689453,38.43199920654297 C49.66699981689453,38.43199920654297 -50.33300018310547,38.43199920654297 -50.33300018310547,38.43199920654297 C-50.33300018310547,38.43199920654297 -50.33300018310547,-37.4630012512207 -50.33300018310547,-37.4630012512207 C-50.33300018310547,-37.4630012512207 49.66699981689453,-37.4630012512207 49.66699981689453,-37.4630012512207 C49.66699981689453,-37.4630012512207 49.66699981689453,38.43199920654297 49.66699981689453,38.43199920654297z"></path><g opacity="1" transform="matrix(1,0,0,1,0,0)"><path stroke-linecap="round" stroke-linejoin="round" fill-opacity="0" stroke="rgb(130,0,159)" stroke-opacity="1" stroke-width="5" d=" M49.66699981689453,38.43199920654297 C49.66699981689453,38.43199920654297 -50.33300018310547,38.43199920654297 -50.33300018310547,38.43199920654297 C-50.33300018310547,38.43199920654297 -50.33300018310547,-37.4630012512207 -50.33300018310547,-37.4630012512207 C-50.33300018310547,-37.4630012512207 49.66699981689453,-37.4630012512207 49.66699981689453,-37.4630012512207 C49.66699981689453,-37.4630012512207 49.66699981689453,38.43199920654297 49.66699981689453,38.43199920654297z"></path></g></g></mask><mask id="__lottie_element_20" mask-type="alpha"><g transform="matrix(3.6797800064086914,-0.04023168981075287,0.04023168981075287,3.6797800064086914,252.6371612548828,248.8180389404297)" opacity="1" style="display: block;"><path fill="rgb(255,0,0)" fill-opacity="1" d=" M49.66699981689453,38.43199920654297 C49.66699981689453,38.43199920654297 -50.33300018310547,38.43199920654297 -50.33300018310547,38.43199920654297 C-50.33300018310547,38.43199920654297 -50.33300018310547,-37.4630012512207 -50.33300018310547,-37.4630012512207 C-50.33300018310547,-37.4630012512207 49.66699981689453,-37.4630012512207 49.66699981689453,-37.4630012512207 C49.66699981689453,-37.4630012512207 49.66699981689453,38.43199920654297 49.66699981689453,38.43199920654297z"></path><g opacity="1" transform="matrix(1,0,0,1,0,0)"><path stroke-linecap="round" stroke-linejoin="round" fill-opacity="0" stroke="rgb(130,0,159)" stroke-opacity="1" stroke-width="5" d=" M49.66699981689453,38.43199920654297 C49.66699981689453,38.43199920654297 -50.33300018310547,38.43199920654297 -50.33300018310547,38.43199920654297 C-50.33300018310547,38.43199920654297 -50.33300018310547,-37.4630012512207 -50.33300018310547,-37.4630012512207 C-50.33300018310547,-37.4630012512207 49.66699981689453,-37.4630012512207 49.66699981689453,-37.4630012512207 C49.66699981689453,-37.4630012512207 49.66699981689453,38.43199920654297 49.66699981689453,38.43199920654297z"></path></g></g></mask></defs><g clip-path="url(#__lottie_element_8)"><g transform="matrix(3.6797800064086914,-0.04023168981075287,0.04023168981075287,3.6797800064086914,248.95738220214844,248.8582763671875)" opacity="1" style="display: block;"><g opacity="1" transform="matrix(1,0,0,1,0,0)"><path fill="rgb(130,0,159)" fill-opacity="1" d=" M2.9049999713897705,-31.23200035095215 C2.9049999713897705,-29.88599967956543 1.8140000104904175,-28.795000076293945 0.46799999475479126,-28.795000076293945 C-0.878000020980835,-28.795000076293945 -1.968999981880188,-29.88599967956543 -1.968999981880188,-31.23200035095215 C-1.968999981880188,-32.577999114990234 -0.878000020980835,-33.66899871826172 0.46799999475479126,-33.66899871826172 C1.8140000104904175,-33.66899871826172 2.9049999713897705,-32.577999114990234 2.9049999713897705,-31.23200035095215z"></path></g></g><g transform="matrix(3.516502857208252,-0.03844655305147171,0.03844655305147171,3.516502857208252,255.78001403808594,246.66392517089844)" opacity="1" style="display: block;"><g opacity="1" transform="matrix(1,0,0,1,0,0)"><path stroke-linecap="round" stroke-linejoin="round" fill-opacity="0" stroke="rgb(247,52,94)" stroke-opacity="1" stroke-width="5" d=" M39.03099822998047,-12.980999946594238 C39.03099822998047,-8.357000350952148 35.28300094604492,-4.609000205993652 30.659000396728516,-4.609000205993652 C26.03499984741211,-4.609000205993652 22.28700065612793,-8.357000350952148 22.28700065612793,-12.980999946594238 C22.28700065612793,-17.604999542236328 26.03499984741211,-21.35300064086914 30.659000396728516,-21.35300064086914 C35.28300094604492,-21.35300064086914 39.03099822998047,-17.604999542236328 39.03099822998047,-12.980999946594238z"></path></g></g><g transform="matrix(3.6797800064086914,-0.04023168981075287,0.04023168981075287,3.6797800064086914,250.79727172851562,248.83816528320312)" opacity="1" style="display: block;"><g opacity="1" transform="matrix(1,0,0,1,0,0)"><path stroke-linecap="round" stroke-linejoin="round" fill-opacity="0" stroke="rgb(247,52,94)" stroke-opacity="1" stroke-width="5" d=" M-37.300777435302734,23.590639114379883 C-37.300777435302734,23.590639114379883 -9.278818130493164,-15.246691703796387 -9.278818130493164,-15.246691703796387 C-9.278818130493164,-15.246691703796387 14.550451278686523,25.170494079589844 14.550451278686523,25.170494079589844"></path></g></g><g mask="url(#__lottie_element_20)" style="display: block;"><g transform="matrix(3.6797800064086914,-0.04023168981075287,0.04023168981075287,3.6797800064086914,250.79727172851562,248.83816528320312)" opacity="1"><g opacity="1" transform="matrix(1,0,0,1,0,0)"><path stroke-linecap="round" stroke-linejoin="round" fill-opacity="0" stroke="rgb(247,52,94)" stroke-opacity="1" stroke-width="5" d=" M13.61178970336914,11.051581382751465 C13.61178970336914,11.051581382751465 24.430906295776367,-3.712733507156372 24.430906295776367,-3.712733507156372 C24.430906295776367,-3.712733507156372 41.33555603027344,25.35788345336914 41.33555603027344,25.35788345336914"></path></g></g></g><g mask="url(#__lottie_element_14)" style="display: block;"><g transform="matrix(3.6797800064086914,-0.04023168981075287,0.04023168981075287,3.6797800064086914,250.79727172851562,248.83816528320312)" opacity="1"><g opacity="1" transform="matrix(1,0,0,1,0,0)"><path stroke-linecap="round" stroke-linejoin="round" fill-opacity="0" stroke="rgb(247,52,94)" stroke-opacity="1" stroke-width="5" d=" M-98.61355590820312,25.454303741455078 C-98.61355590820312,25.454303741455078 -76.1063003540039,-5.987766742706299 -76.1063003540039,-5.987766742706299 C-76.1063003540039,-5.987766742706299 -67.50428771972656,7.615913391113281 -67.50428771972656,7.615913391113281"></path></g></g></g><g transform="matrix(3.6797800064086914,-0.04023168981075287,0.04023168981075287,3.6797800064086914,252.6371612548828,248.8180389404297)" opacity="1" style="display: block;"><g opacity="1" transform="matrix(1,0,0,1,0,0)"><path stroke-linecap="round" stroke-linejoin="round" fill-opacity="0" stroke="rgb(130,0,159)" stroke-opacity="1" stroke-width="5" d=" M50.1349983215332,39.05699920654297 C50.1349983215332,39.05699920654297 -50.91899871826172,39.05699920654297 -50.91899871826172,39.05699920654297 C-50.91899871826172,39.05699920654297 -50.91899871826172,-38.000999450683594 -50.91899871826172,-38.000999450683594 C-50.91899871826172,-38.000999450683594 50.1349983215332,-38.000999450683594 50.1349983215332,-38.000999450683594 C50.1349983215332,-38.000999450683594 50.1349983215332,39.05699920654297 50.1349983215332,39.05699920654297z"></path></g></g></g></svg>