<svg xmlns="http://www.w3.org/2000/svg" viewBox="0 0 500 500" width="500" height="500" preserveAspectRatio="xMidYMid meet" style="width: 100%; height: 100%; transform: translate3d(0px, 0px, 0px);"><defs><clipPath id="__lottie_element_133"><rect width="500" height="500" x="0" y="0"></rect></clipPath><filter id="__lottie_element_142" filterUnits="objectBoundingBox" x="0%" y="0%" width="100%" height="100%"><feComponentTransfer in="SourceGraphic"><feFuncA type="table" tableValues="1.0 0.0"></feFuncA></feComponentTransfer></filter><mask id="__lottie_element_141" mask-type="alpha"><g filter="url(#__lottie_element_142)"><rect width="500" height="500" x="0" y="0" fill="#ffffff" opacity="0"></rect><g transform="matrix(0.9961947202682495,-0.08715574443340302,0.08715574443340302,0.9961947202682495,252.20498657226562,247.8662109375)" opacity="1" style="display: block;"><path fill="#343a40" fill-opacity="1" d=" M53.28900146484375,-29.02199935913086 C53.28900146484375,0.18299999833106995 29.61400032043457,23.858999252319336 0.4090000092983246,23.858999252319336 C-28.79599952697754,23.858999252319336 -52.47200012207031,0.18299999833106995 -52.47200012207031,-29.02199935913086 C-52.47200012207031,-58.22700119018555 -28.79599952697754,-81.90299987792969 0.4090000092983246,-81.90299987792969 C29.61400032043457,-81.90299987792969 53.28900146484375,-58.22700119018555 53.28900146484375,-29.02199935913086z M96.90399932861328,-29.02199935913086 C96.90399932861328,24.270999908447266 53.70199966430664,67.4729995727539 0.4090000092983246,67.4729995727539 C-52.88399887084961,67.4729995727539 -96.08699798583984,24.270999908447266 -96.08699798583984,-29.02199935913086 C-96.08699798583984,-82.31500244140625 -52.88399887084961,-125.51699829101562 0.4090000092983246,-125.51699829101562 C53.70199966430664,-125.51699829101562 96.90399932861328,-82.31500244140625 96.90399932861328,-29.02199935913086z"></path><g opacity="1" transform="matrix(1,0,0,1,0,0)"><path stroke-linecap="round" stroke-linejoin="round" fill-opacity="0" stroke="rgb(18,19,49)" stroke-opacity="1" stroke-width="0" d=" M53.28900146484375,-29.02199935913086 C53.28900146484375,0.18299999833106995 29.61400032043457,23.858999252319336 0.4090000092983246,23.858999252319336 C-28.79599952697754,23.858999252319336 -52.47200012207031,0.18299999833106995 -52.47200012207031,-29.02199935913086 C-52.47200012207031,-58.22700119018555 -28.79599952697754,-81.90299987792969 0.4090000092983246,-81.90299987792969 C29.61400032043457,-81.90299987792969 53.28900146484375,-58.22700119018555 53.28900146484375,-29.02199935913086z M96.90399932861328,-29.02199935913086 C96.90399932861328,24.270999908447266 53.70199966430664,67.4729995727539 0.4090000092983246,67.4729995727539 C-52.88399887084961,67.4729995727539 -96.08699798583984,24.270999908447266 -96.08699798583984,-29.02199935913086 C-96.08699798583984,-82.31500244140625 -52.88399887084961,-125.51699829101562 0.4090000092983246,-125.51699829101562 C53.70199966430664,-125.51699829101562 96.90399932861328,-82.31500244140625 96.90399932861328,-29.02199935913086z"></path></g></g></g></mask><filter id="__lottie_element_149" filterUnits="objectBoundingBox" x="0%" y="0%" width="100%" height="100%"><feComponentTransfer in="SourceGraphic"><feFuncA type="table" tableValues="1.0 0.0"></feFuncA></feComponentTransfer></filter><mask id="__lottie_element_148" mask-type="alpha"><g filter="url(#__lottie_element_149)"><rect width="500" height="500" x="0" y="0" fill="#ffffff" opacity="0"></rect><g transform="matrix(0.9999877214431763,0.0049601150676608086,-0.0049601150676608086,0.9999877214431763,249.53004455566406,247.93861389160156)" opacity="1" style="display: block;"><path fill="rgb(18,19,49)" fill-opacity="1" d=" M25.836000442504883,-118.3290023803711 C25.836000442504883,-118.3290023803711 -25.018999099731445,-118.3290023803711 -25.018999099731445,-118.3290023803711 C-25.018999099731445,-118.3290023803711 -25.018999099731445,-169.18299865722656 -25.018999099731445,-169.18299865722656 C-25.018999099731445,-169.18299865722656 25.836000442504883,-169.18299865722656 25.836000442504883,-169.18299865722656 C25.836000442504883,-169.18299865722656 25.836000442504883,-118.3290023803711 25.836000442504883,-118.3290023803711z M-22.225000381469727,-119.0780029296875 C-22.225000381469727,-119.0780029296875 -66.26499938964844,-93.6510009765625 -66.26499938964844,-93.6510009765625 C-66.26499938964844,-93.6510009765625 -91.69300079345703,-137.69200134277344 -91.69300079345703,-137.69200134277344 C-91.69300079345703,-137.69200134277344 -47.652000427246094,-163.11900329589844 -47.652000427246094,-163.11900329589844 C-47.652000427246094,-163.11900329589844 -22.225000381469727,-119.0780029296875 -22.225000381469727,-119.0780029296875z M-64.22000122070312,-95.69599914550781 C-64.22000122070312,-95.69599914550781 -89.64700317382812,-51.654998779296875 -89.64700317382812,-51.654998779296875 C-89.64700317382812,-51.654998779296875 -133.68800354003906,-77.08200073242188 -133.68800354003906,-77.08200073242188 C-133.68800354003906,-77.08200073242188 -108.26100158691406,-121.12300109863281 -108.26100158691406,-121.12300109863281 C-108.26100158691406,-121.12300109863281 -64.22000122070312,-95.69599914550781 -64.22000122070312,-95.69599914550781z M-88.89900207519531,-54.44900131225586 C-88.89900207519531,-54.44900131225586 -88.89900207519531,-3.5950000286102295 -88.89900207519531,-3.5950000286102295 C-88.89900207519531,-3.5950000286102295 -139.7530059814453,-3.5950000286102295 -139.7530059814453,-3.5950000286102295 C-139.7530059814453,-3.5950000286102295 -139.7530059814453,-54.44900131225586 -139.7530059814453,-54.44900131225586 C-139.7530059814453,-54.44900131225586 -88.89900207519531,-54.44900131225586 -88.89900207519531,-54.44900131225586z M-89.64700317382812,-6.388999938964844 C-89.64700317382812,-6.388999938964844 -64.22000122070312,37.652000427246094 -64.22000122070312,37.652000427246094 C-64.22000122070312,37.652000427246094 -108.26100158691406,63.07899856567383 -108.26100158691406,63.07899856567383 C-108.26100158691406,63.07899856567383 -133.68800354003906,19.038000106811523 -133.68800354003906,19.038000106811523 C-133.68800354003906,19.038000106811523 -89.64700317382812,-6.388999938964844 -89.64700317382812,-6.388999938964844z M-66.26499938964844,35.60599899291992 C-66.26499938964844,35.60599899291992 -22.225000381469727,61.03300094604492 -22.225000381469727,61.03300094604492 C-22.225000381469727,61.03300094604492 -47.652000427246094,105.0739974975586 -47.652000427246094,105.0739974975586 C-47.652000427246094,105.0739974975586 -91.69300079345703,79.64700317382812 -91.69300079345703,79.64700317382812 C-91.69300079345703,79.64700317382812 -66.26499938964844,35.60599899291992 -66.26499938964844,35.60599899291992z M-25.018999099731445,60.28499984741211 C-25.018999099731445,60.28499984741211 25.836000442504883,60.28499984741211 25.836000442504883,60.28499984741211 C25.836000442504883,60.28499984741211 25.836000442504883,111.13899993896484 25.836000442504883,111.13899993896484 C25.836000442504883,111.13899993896484 -25.018999099731445,111.13899993896484 -25.018999099731445,111.13899993896484 C-25.018999099731445,111.13899993896484 -25.018999099731445,60.28499984741211 -25.018999099731445,60.28499984741211z M23.04199981689453,61.03300094604492 C23.04199981689453,61.03300094604492 67.08300018310547,35.60599899291992 67.08300018310547,35.60599899291992 C67.08300018310547,35.60599899291992 92.51000213623047,79.64700317382812 92.51000213623047,79.64700317382812 C92.51000213623047,79.64700317382812 48.46900177001953,105.0739974975586 48.46900177001953,105.0739974975586 C48.46900177001953,105.0739974975586 23.04199981689453,61.03300094604492 23.04199981689453,61.03300094604492z M65.03700256347656,37.652000427246094 C65.03700256347656,37.652000427246094 90.46399688720703,-6.388999938964844 90.46399688720703,-6.388999938964844 C90.46399688720703,-6.388999938964844 134.5050048828125,19.038000106811523 134.5050048828125,19.038000106811523 C134.5050048828125,19.038000106811523 109.0780029296875,63.07899856567383 109.0780029296875,63.07899856567383 C109.0780029296875,63.07899856567383 65.03700256347656,37.652000427246094 65.03700256347656,37.652000427246094z M89.71600341796875,-3.5950000286102295 C89.71600341796875,-3.5950000286102295 89.71600341796875,-54.44900131225586 89.71600341796875,-54.44900131225586 C89.71600341796875,-54.44900131225586 140.57000732421875,-54.44900131225586 140.57000732421875,-54.44900131225586 C140.57000732421875,-54.44900131225586 140.57000732421875,-3.5950000286102295 140.57000732421875,-3.5950000286102295 C140.57000732421875,-3.5950000286102295 89.71600341796875,-3.5950000286102295 89.71600341796875,-3.5950000286102295z M90.46399688720703,-51.654998779296875 C90.46399688720703,-51.654998779296875 65.03700256347656,-95.69599914550781 65.03700256347656,-95.69599914550781 C65.03700256347656,-95.69599914550781 109.0780029296875,-121.12300109863281 109.0780029296875,-121.12300109863281 C109.0780029296875,-121.12300109863281 134.5050048828125,-77.08200073242188 134.5050048828125,-77.08200073242188 C134.5050048828125,-77.08200073242188 90.46399688720703,-51.654998779296875 90.46399688720703,-51.654998779296875z M67.08300018310547,-93.6510009765625 C67.08300018310547,-93.6510009765625 23.04199981689453,-119.0780029296875 23.04199981689453,-119.0780029296875 C23.04199981689453,-119.0780029296875 48.46900177001953,-163.11900329589844 48.46900177001953,-163.11900329589844 C48.46900177001953,-163.11900329589844 92.51000213623047,-137.69200134277344 92.51000213623047,-137.69200134277344 C92.51000213623047,-137.69200134277344 67.08300018310547,-93.6510009765625 67.08300018310547,-93.6510009765625z"></path><g opacity="1" transform="matrix(1,0,0,1,0,0)"><path stroke-linecap="round" stroke-linejoin="round" fill-opacity="0" stroke="rgb(18,19,49)" stroke-opacity="1" stroke-width="0" d=" M25.836000442504883,-118.3290023803711 C25.836000442504883,-118.3290023803711 -25.018999099731445,-118.3290023803711 -25.018999099731445,-118.3290023803711 C-25.018999099731445,-118.3290023803711 -25.018999099731445,-169.18299865722656 -25.018999099731445,-169.18299865722656 C-25.018999099731445,-169.18299865722656 25.836000442504883,-169.18299865722656 25.836000442504883,-169.18299865722656 C25.836000442504883,-169.18299865722656 25.836000442504883,-118.3290023803711 25.836000442504883,-118.3290023803711z M-22.225000381469727,-119.0780029296875 C-22.225000381469727,-119.0780029296875 -66.26499938964844,-93.6510009765625 -66.26499938964844,-93.6510009765625 C-66.26499938964844,-93.6510009765625 -91.69300079345703,-137.69200134277344 -91.69300079345703,-137.69200134277344 C-91.69300079345703,-137.69200134277344 -47.652000427246094,-163.11900329589844 -47.652000427246094,-163.11900329589844 C-47.652000427246094,-163.11900329589844 -22.225000381469727,-119.0780029296875 -22.225000381469727,-119.0780029296875z M-64.22000122070312,-95.69599914550781 C-64.22000122070312,-95.69599914550781 -89.64700317382812,-51.654998779296875 -89.64700317382812,-51.654998779296875 C-89.64700317382812,-51.654998779296875 -133.68800354003906,-77.08200073242188 -133.68800354003906,-77.08200073242188 C-133.68800354003906,-77.08200073242188 -108.26100158691406,-121.12300109863281 -108.26100158691406,-121.12300109863281 C-108.26100158691406,-121.12300109863281 -64.22000122070312,-95.69599914550781 -64.22000122070312,-95.69599914550781z M-88.89900207519531,-54.44900131225586 C-88.89900207519531,-54.44900131225586 -88.89900207519531,-3.5950000286102295 -88.89900207519531,-3.5950000286102295 C-88.89900207519531,-3.5950000286102295 -139.7530059814453,-3.5950000286102295 -139.7530059814453,-3.5950000286102295 C-139.7530059814453,-3.5950000286102295 -139.7530059814453,-54.44900131225586 -139.7530059814453,-54.44900131225586 C-139.7530059814453,-54.44900131225586 -88.89900207519531,-54.44900131225586 -88.89900207519531,-54.44900131225586z M-89.64700317382812,-6.388999938964844 C-89.64700317382812,-6.388999938964844 -64.22000122070312,37.652000427246094 -64.22000122070312,37.652000427246094 C-64.22000122070312,37.652000427246094 -108.26100158691406,63.07899856567383 -108.26100158691406,63.07899856567383 C-108.26100158691406,63.07899856567383 -133.68800354003906,19.038000106811523 -133.68800354003906,19.038000106811523 C-133.68800354003906,19.038000106811523 -89.64700317382812,-6.388999938964844 -89.64700317382812,-6.388999938964844z M-66.26499938964844,35.60599899291992 C-66.26499938964844,35.60599899291992 -22.225000381469727,61.03300094604492 -22.225000381469727,61.03300094604492 C-22.225000381469727,61.03300094604492 -47.652000427246094,105.0739974975586 -47.652000427246094,105.0739974975586 C-47.652000427246094,105.0739974975586 -91.69300079345703,79.64700317382812 -91.69300079345703,79.64700317382812 C-91.69300079345703,79.64700317382812 -66.26499938964844,35.60599899291992 -66.26499938964844,35.60599899291992z M-25.018999099731445,60.28499984741211 C-25.018999099731445,60.28499984741211 25.836000442504883,60.28499984741211 25.836000442504883,60.28499984741211 C25.836000442504883,60.28499984741211 25.836000442504883,111.13899993896484 25.836000442504883,111.13899993896484 C25.836000442504883,111.13899993896484 -25.018999099731445,111.13899993896484 -25.018999099731445,111.13899993896484 C-25.018999099731445,111.13899993896484 -25.018999099731445,60.28499984741211 -25.018999099731445,60.28499984741211z M23.04199981689453,61.03300094604492 C23.04199981689453,61.03300094604492 67.08300018310547,35.60599899291992 67.08300018310547,35.60599899291992 C67.08300018310547,35.60599899291992 92.51000213623047,79.64700317382812 92.51000213623047,79.64700317382812 C92.51000213623047,79.64700317382812 48.46900177001953,105.0739974975586 48.46900177001953,105.0739974975586 C48.46900177001953,105.0739974975586 23.04199981689453,61.03300094604492 23.04199981689453,61.03300094604492z M65.03700256347656,37.652000427246094 C65.03700256347656,37.652000427246094 90.46399688720703,-6.388999938964844 90.46399688720703,-6.388999938964844 C90.46399688720703,-6.388999938964844 134.5050048828125,19.038000106811523 134.5050048828125,19.038000106811523 C134.5050048828125,19.038000106811523 109.0780029296875,63.07899856567383 109.0780029296875,63.07899856567383 C109.0780029296875,63.07899856567383 65.03700256347656,37.652000427246094 65.03700256347656,37.652000427246094z M89.71600341796875,-3.5950000286102295 C89.71600341796875,-3.5950000286102295 89.71600341796875,-54.44900131225586 89.71600341796875,-54.44900131225586 C89.71600341796875,-54.44900131225586 140.57000732421875,-54.44900131225586 140.57000732421875,-54.44900131225586 C140.57000732421875,-54.44900131225586 140.57000732421875,-3.5950000286102295 140.57000732421875,-3.5950000286102295 C140.57000732421875,-3.5950000286102295 89.71600341796875,-3.5950000286102295 89.71600341796875,-3.5950000286102295z M90.46399688720703,-51.654998779296875 C90.46399688720703,-51.654998779296875 65.03700256347656,-95.69599914550781 65.03700256347656,-95.69599914550781 C65.03700256347656,-95.69599914550781 109.0780029296875,-121.12300109863281 109.0780029296875,-121.12300109863281 C109.0780029296875,-121.12300109863281 134.5050048828125,-77.08200073242188 134.5050048828125,-77.08200073242188 C134.5050048828125,-77.08200073242188 90.46399688720703,-51.654998779296875 90.46399688720703,-51.654998779296875z M67.08300018310547,-93.6510009765625 C67.08300018310547,-93.6510009765625 23.04199981689453,-119.0780029296875 23.04199981689453,-119.0780029296875 C23.04199981689453,-119.0780029296875 48.46900177001953,-163.11900329589844 48.46900177001953,-163.11900329589844 C48.46900177001953,-163.11900329589844 92.51000213623047,-137.69200134277344 92.51000213623047,-137.69200134277344 C92.51000213623047,-137.69200134277344 67.08300018310547,-93.6510009765625 67.08300018310547,-93.6510009765625z"></path></g></g></g></mask><filter id="__lottie_element_156" filterUnits="objectBoundingBox" x="0%" y="0%" width="100%" height="100%"><feComponentTransfer in="SourceGraphic"><feFuncA type="table" tableValues="1.0 0.0"></feFuncA></feComponentTransfer></filter><mask id="__lottie_element_155" mask-type="alpha"><g filter="url(#__lottie_element_156)"><rect width="500" height="500" x="0" y="0" fill="#ffffff" opacity="0"></rect><g transform="matrix(0.9999877214431763,0.0049601150676608086,-0.0049601150676608086,0.9999877214431763,249.53004455566406,247.93861389160156)" opacity="1" style="display: block;"><path fill="rgb(18,19,49)" fill-opacity="1" d=" M25.836000442504883,-118.3290023803711 C25.836000442504883,-118.3290023803711 -25.018999099731445,-118.3290023803711 -25.018999099731445,-118.3290023803711 C-25.018999099731445,-118.3290023803711 -25.018999099731445,-169.18299865722656 -25.018999099731445,-169.18299865722656 C-25.018999099731445,-169.18299865722656 25.836000442504883,-169.18299865722656 25.836000442504883,-169.18299865722656 C25.836000442504883,-169.18299865722656 25.836000442504883,-118.3290023803711 25.836000442504883,-118.3290023803711z M-22.225000381469727,-119.0780029296875 C-22.225000381469727,-119.0780029296875 -66.26499938964844,-93.6510009765625 -66.26499938964844,-93.6510009765625 C-66.26499938964844,-93.6510009765625 -91.69300079345703,-137.69200134277344 -91.69300079345703,-137.69200134277344 C-91.69300079345703,-137.69200134277344 -47.652000427246094,-163.11900329589844 -47.652000427246094,-163.11900329589844 C-47.652000427246094,-163.11900329589844 -22.225000381469727,-119.0780029296875 -22.225000381469727,-119.0780029296875z M-64.22000122070312,-95.69599914550781 C-64.22000122070312,-95.69599914550781 -89.64700317382812,-51.654998779296875 -89.64700317382812,-51.654998779296875 C-89.64700317382812,-51.654998779296875 -133.68800354003906,-77.08200073242188 -133.68800354003906,-77.08200073242188 C-133.68800354003906,-77.08200073242188 -108.26100158691406,-121.12300109863281 -108.26100158691406,-121.12300109863281 C-108.26100158691406,-121.12300109863281 -64.22000122070312,-95.69599914550781 -64.22000122070312,-95.69599914550781z M-88.89900207519531,-54.44900131225586 C-88.89900207519531,-54.44900131225586 -88.89900207519531,-3.5950000286102295 -88.89900207519531,-3.5950000286102295 C-88.89900207519531,-3.5950000286102295 -139.7530059814453,-3.5950000286102295 -139.7530059814453,-3.5950000286102295 C-139.7530059814453,-3.5950000286102295 -139.7530059814453,-54.44900131225586 -139.7530059814453,-54.44900131225586 C-139.7530059814453,-54.44900131225586 -88.89900207519531,-54.44900131225586 -88.89900207519531,-54.44900131225586z M-89.64700317382812,-6.388999938964844 C-89.64700317382812,-6.388999938964844 -64.22000122070312,37.652000427246094 -64.22000122070312,37.652000427246094 C-64.22000122070312,37.652000427246094 -108.26100158691406,63.07899856567383 -108.26100158691406,63.07899856567383 C-108.26100158691406,63.07899856567383 -133.68800354003906,19.038000106811523 -133.68800354003906,19.038000106811523 C-133.68800354003906,19.038000106811523 -89.64700317382812,-6.388999938964844 -89.64700317382812,-6.388999938964844z M-66.26499938964844,35.60599899291992 C-66.26499938964844,35.60599899291992 -22.225000381469727,61.03300094604492 -22.225000381469727,61.03300094604492 C-22.225000381469727,61.03300094604492 -47.652000427246094,105.0739974975586 -47.652000427246094,105.0739974975586 C-47.652000427246094,105.0739974975586 -91.69300079345703,79.64700317382812 -91.69300079345703,79.64700317382812 C-91.69300079345703,79.64700317382812 -66.26499938964844,35.60599899291992 -66.26499938964844,35.60599899291992z M-25.018999099731445,60.28499984741211 C-25.018999099731445,60.28499984741211 25.836000442504883,60.28499984741211 25.836000442504883,60.28499984741211 C25.836000442504883,60.28499984741211 25.836000442504883,111.13899993896484 25.836000442504883,111.13899993896484 C25.836000442504883,111.13899993896484 -25.018999099731445,111.13899993896484 -25.018999099731445,111.13899993896484 C-25.018999099731445,111.13899993896484 -25.018999099731445,60.28499984741211 -25.018999099731445,60.28499984741211z M23.04199981689453,61.03300094604492 C23.04199981689453,61.03300094604492 67.08300018310547,35.60599899291992 67.08300018310547,35.60599899291992 C67.08300018310547,35.60599899291992 92.51000213623047,79.64700317382812 92.51000213623047,79.64700317382812 C92.51000213623047,79.64700317382812 48.46900177001953,105.0739974975586 48.46900177001953,105.0739974975586 C48.46900177001953,105.0739974975586 23.04199981689453,61.03300094604492 23.04199981689453,61.03300094604492z M65.03700256347656,37.652000427246094 C65.03700256347656,37.652000427246094 90.46399688720703,-6.388999938964844 90.46399688720703,-6.388999938964844 C90.46399688720703,-6.388999938964844 134.5050048828125,19.038000106811523 134.5050048828125,19.038000106811523 C134.5050048828125,19.038000106811523 109.0780029296875,63.07899856567383 109.0780029296875,63.07899856567383 C109.0780029296875,63.07899856567383 65.03700256347656,37.652000427246094 65.03700256347656,37.652000427246094z M89.71600341796875,-3.5950000286102295 C89.71600341796875,-3.5950000286102295 89.71600341796875,-54.44900131225586 89.71600341796875,-54.44900131225586 C89.71600341796875,-54.44900131225586 140.57000732421875,-54.44900131225586 140.57000732421875,-54.44900131225586 C140.57000732421875,-54.44900131225586 140.57000732421875,-3.5950000286102295 140.57000732421875,-3.5950000286102295 C140.57000732421875,-3.5950000286102295 89.71600341796875,-3.5950000286102295 89.71600341796875,-3.5950000286102295z M90.46399688720703,-51.654998779296875 C90.46399688720703,-51.654998779296875 65.03700256347656,-95.69599914550781 65.03700256347656,-95.69599914550781 C65.03700256347656,-95.69599914550781 109.0780029296875,-121.12300109863281 109.0780029296875,-121.12300109863281 C109.0780029296875,-121.12300109863281 134.5050048828125,-77.08200073242188 134.5050048828125,-77.08200073242188 C134.5050048828125,-77.08200073242188 90.46399688720703,-51.654998779296875 90.46399688720703,-51.654998779296875z M67.08300018310547,-93.6510009765625 C67.08300018310547,-93.6510009765625 23.04199981689453,-119.0780029296875 23.04199981689453,-119.0780029296875 C23.04199981689453,-119.0780029296875 48.46900177001953,-163.11900329589844 48.46900177001953,-163.11900329589844 C48.46900177001953,-163.11900329589844 92.51000213623047,-137.69200134277344 92.51000213623047,-137.69200134277344 C92.51000213623047,-137.69200134277344 67.08300018310547,-93.6510009765625 67.08300018310547,-93.6510009765625z"></path><g opacity="1" transform="matrix(1,0,0,1,0,0)"><path stroke-linecap="round" stroke-linejoin="round" fill-opacity="0" stroke="rgb(18,19,49)" stroke-opacity="1" stroke-width="0" d=" M25.836000442504883,-118.3290023803711 C25.836000442504883,-118.3290023803711 -25.018999099731445,-118.3290023803711 -25.018999099731445,-118.3290023803711 C-25.018999099731445,-118.3290023803711 -25.018999099731445,-169.18299865722656 -25.018999099731445,-169.18299865722656 C-25.018999099731445,-169.18299865722656 25.836000442504883,-169.18299865722656 25.836000442504883,-169.18299865722656 C25.836000442504883,-169.18299865722656 25.836000442504883,-118.3290023803711 25.836000442504883,-118.3290023803711z M-22.225000381469727,-119.0780029296875 C-22.225000381469727,-119.0780029296875 -66.26499938964844,-93.6510009765625 -66.26499938964844,-93.6510009765625 C-66.26499938964844,-93.6510009765625 -91.69300079345703,-137.69200134277344 -91.69300079345703,-137.69200134277344 C-91.69300079345703,-137.69200134277344 -47.652000427246094,-163.11900329589844 -47.652000427246094,-163.11900329589844 C-47.652000427246094,-163.11900329589844 -22.225000381469727,-119.0780029296875 -22.225000381469727,-119.0780029296875z M-64.22000122070312,-95.69599914550781 C-64.22000122070312,-95.69599914550781 -89.64700317382812,-51.654998779296875 -89.64700317382812,-51.654998779296875 C-89.64700317382812,-51.654998779296875 -133.68800354003906,-77.08200073242188 -133.68800354003906,-77.08200073242188 C-133.68800354003906,-77.08200073242188 -108.26100158691406,-121.12300109863281 -108.26100158691406,-121.12300109863281 C-108.26100158691406,-121.12300109863281 -64.22000122070312,-95.69599914550781 -64.22000122070312,-95.69599914550781z M-88.89900207519531,-54.44900131225586 C-88.89900207519531,-54.44900131225586 -88.89900207519531,-3.5950000286102295 -88.89900207519531,-3.5950000286102295 C-88.89900207519531,-3.5950000286102295 -139.7530059814453,-3.5950000286102295 -139.7530059814453,-3.5950000286102295 C-139.7530059814453,-3.5950000286102295 -139.7530059814453,-54.44900131225586 -139.7530059814453,-54.44900131225586 C-139.7530059814453,-54.44900131225586 -88.89900207519531,-54.44900131225586 -88.89900207519531,-54.44900131225586z M-89.64700317382812,-6.388999938964844 C-89.64700317382812,-6.388999938964844 -64.22000122070312,37.652000427246094 -64.22000122070312,37.652000427246094 C-64.22000122070312,37.652000427246094 -108.26100158691406,63.07899856567383 -108.26100158691406,63.07899856567383 C-108.26100158691406,63.07899856567383 -133.68800354003906,19.038000106811523 -133.68800354003906,19.038000106811523 C-133.68800354003906,19.038000106811523 -89.64700317382812,-6.388999938964844 -89.64700317382812,-6.388999938964844z M-66.26499938964844,35.60599899291992 C-66.26499938964844,35.60599899291992 -22.225000381469727,61.03300094604492 -22.225000381469727,61.03300094604492 C-22.225000381469727,61.03300094604492 -47.652000427246094,105.0739974975586 -47.652000427246094,105.0739974975586 C-47.652000427246094,105.0739974975586 -91.69300079345703,79.64700317382812 -91.69300079345703,79.64700317382812 C-91.69300079345703,79.64700317382812 -66.26499938964844,35.60599899291992 -66.26499938964844,35.60599899291992z M-25.018999099731445,60.28499984741211 C-25.018999099731445,60.28499984741211 25.836000442504883,60.28499984741211 25.836000442504883,60.28499984741211 C25.836000442504883,60.28499984741211 25.836000442504883,111.13899993896484 25.836000442504883,111.13899993896484 C25.836000442504883,111.13899993896484 -25.018999099731445,111.13899993896484 -25.018999099731445,111.13899993896484 C-25.018999099731445,111.13899993896484 -25.018999099731445,60.28499984741211 -25.018999099731445,60.28499984741211z M23.04199981689453,61.03300094604492 C23.04199981689453,61.03300094604492 67.08300018310547,35.60599899291992 67.08300018310547,35.60599899291992 C67.08300018310547,35.60599899291992 92.51000213623047,79.64700317382812 92.51000213623047,79.64700317382812 C92.51000213623047,79.64700317382812 48.46900177001953,105.0739974975586 48.46900177001953,105.0739974975586 C48.46900177001953,105.0739974975586 23.04199981689453,61.03300094604492 23.04199981689453,61.03300094604492z M65.03700256347656,37.652000427246094 C65.03700256347656,37.652000427246094 90.46399688720703,-6.388999938964844 90.46399688720703,-6.388999938964844 C90.46399688720703,-6.388999938964844 134.5050048828125,19.038000106811523 134.5050048828125,19.038000106811523 C134.5050048828125,19.038000106811523 109.0780029296875,63.07899856567383 109.0780029296875,63.07899856567383 C109.0780029296875,63.07899856567383 65.03700256347656,37.652000427246094 65.03700256347656,37.652000427246094z M89.71600341796875,-3.5950000286102295 C89.71600341796875,-3.5950000286102295 89.71600341796875,-54.44900131225586 89.71600341796875,-54.44900131225586 C89.71600341796875,-54.44900131225586 140.57000732421875,-54.44900131225586 140.57000732421875,-54.44900131225586 C140.57000732421875,-54.44900131225586 140.57000732421875,-3.5950000286102295 140.57000732421875,-3.5950000286102295 C140.57000732421875,-3.5950000286102295 89.71600341796875,-3.5950000286102295 89.71600341796875,-3.5950000286102295z M90.46399688720703,-51.654998779296875 C90.46399688720703,-51.654998779296875 65.03700256347656,-95.69599914550781 65.03700256347656,-95.69599914550781 C65.03700256347656,-95.69599914550781 109.0780029296875,-121.12300109863281 109.0780029296875,-121.12300109863281 C109.0780029296875,-121.12300109863281 134.5050048828125,-77.08200073242188 134.5050048828125,-77.08200073242188 C134.5050048828125,-77.08200073242188 90.46399688720703,-51.654998779296875 90.46399688720703,-51.654998779296875z M67.08300018310547,-93.6510009765625 C67.08300018310547,-93.6510009765625 23.04199981689453,-119.0780029296875 23.04199981689453,-119.0780029296875 C23.04199981689453,-119.0780029296875 48.46900177001953,-163.11900329589844 48.46900177001953,-163.11900329589844 C48.46900177001953,-163.11900329589844 92.51000213623047,-137.69200134277344 92.51000213623047,-137.69200134277344 C92.51000213623047,-137.69200134277344 67.08300018310547,-93.6510009765625 67.08300018310547,-93.6510009765625z"></path></g></g></g></mask></defs><g clip-path="url(#__lottie_element_133)"><g mask="url(#__lottie_element_155)" style="display: block;"><g transform="matrix(0.8203477263450623,-0.5718650817871094,0.5718650817871094,0.8203477263450623,266.3441467285156,242.96102905273438)" opacity="1"><g opacity="1" transform="matrix(1,0,0,1,0,0)"><path stroke-linecap="round" stroke-linejoin="round" fill-opacity="0" stroke="#343a40" stroke-opacity="1" stroke-width="18" d=" M51.676998138427734,186.93299865722656 C51.676998138427734,186.93299865722656 0.4090000092983246,147.8820037841797 0.4090000092983246,147.8820037841797 C0.4090000092983246,147.8820037841797 -50.86000061035156,186.93299865722656 -50.86000061035156,186.93299865722656 C-50.86000061035156,186.93299865722656 -50.86000061035156,53.42599868774414 -50.86000061035156,53.42599868774414 C-50.86000061035156,53.42599868774414 2.178999900817871,81.35299682617188 2.178999900817871,81.35299682617188 C2.178999900817871,81.35299682617188 51.676998138427734,53.527000427246094 51.676998138427734,53.527000427246094 C51.676998138427734,53.527000427246094 51.676998138427734,186.93299865722656 51.676998138427734,186.93299865722656z"></path></g></g></g><g mask="url(#__lottie_element_148)" style="display: block;"><g transform="matrix(0.880780041217804,0.47352564334869385,-0.47352564334869385,0.880780041217804,235.98008728027344,244.28733825683594)" opacity="1"><g opacity="1" transform="matrix(1,0,0,1,0,0)"><path stroke-linecap="round" stroke-linejoin="round" fill-opacity="0" stroke="#343a40" stroke-opacity="1" stroke-width="18" d=" M51.676998138427734,186.93299865722656 C51.676998138427734,186.93299865722656 0.4090000092983246,147.8820037841797 0.4090000092983246,147.8820037841797 C0.4090000092983246,147.8820037841797 -50.86000061035156,186.93299865722656 -50.86000061035156,186.93299865722656 C-50.86000061035156,186.93299865722656 -50.86000061035156,53.42599868774414 -50.86000061035156,53.42599868774414 C-50.86000061035156,53.42599868774414 2.178999900817871,81.35299682617188 2.178999900817871,81.35299682617188 C2.178999900817871,81.35299682617188 51.676998138427734,53.527000427246094 51.676998138427734,53.527000427246094 C51.676998138427734,53.527000427246094 51.676998138427734,186.93299865722656 51.676998138427734,186.93299865722656z"></path></g></g></g><g mask="url(#__lottie_element_141)" style="display: block;"><g transform="matrix(0.9999877214431763,0.0049601150676608086,-0.0049601150676608086,0.9999877214431763,249.53004455566406,247.93861389160156)" opacity="1"><g opacity="1" transform="matrix(1,0,0,1,0,0)"><path stroke-linecap="round" stroke-linejoin="round" fill-opacity="0" stroke="#343a40" stroke-opacity="1" stroke-width="18" d=" M25.836000442504883,-118.3290023803711 C25.836000442504883,-118.3290023803711 -25.018999099731445,-118.3290023803711 -25.018999099731445,-118.3290023803711 C-25.018999099731445,-118.3290023803711 -25.018999099731445,-169.18299865722656 -25.018999099731445,-169.18299865722656 C-25.018999099731445,-169.18299865722656 25.836000442504883,-169.18299865722656 25.836000442504883,-169.18299865722656 C25.836000442504883,-169.18299865722656 25.836000442504883,-118.3290023803711 25.836000442504883,-118.3290023803711z M-22.225000381469727,-119.0780029296875 C-22.225000381469727,-119.0780029296875 -66.26499938964844,-93.6510009765625 -66.26499938964844,-93.6510009765625 C-66.26499938964844,-93.6510009765625 -91.69300079345703,-137.69200134277344 -91.69300079345703,-137.69200134277344 C-91.69300079345703,-137.69200134277344 -47.652000427246094,-163.11900329589844 -47.652000427246094,-163.11900329589844 C-47.652000427246094,-163.11900329589844 -22.225000381469727,-119.0780029296875 -22.225000381469727,-119.0780029296875z M-64.22000122070312,-95.69599914550781 C-64.22000122070312,-95.69599914550781 -89.64700317382812,-51.654998779296875 -89.64700317382812,-51.654998779296875 C-89.64700317382812,-51.654998779296875 -133.68800354003906,-77.08200073242188 -133.68800354003906,-77.08200073242188 C-133.68800354003906,-77.08200073242188 -108.26100158691406,-121.12300109863281 -108.26100158691406,-121.12300109863281 C-108.26100158691406,-121.12300109863281 -64.22000122070312,-95.69599914550781 -64.22000122070312,-95.69599914550781z M-88.89900207519531,-54.44900131225586 C-88.89900207519531,-54.44900131225586 -88.89900207519531,-3.5950000286102295 -88.89900207519531,-3.5950000286102295 C-88.89900207519531,-3.5950000286102295 -139.7530059814453,-3.5950000286102295 -139.7530059814453,-3.5950000286102295 C-139.7530059814453,-3.5950000286102295 -139.7530059814453,-54.44900131225586 -139.7530059814453,-54.44900131225586 C-139.7530059814453,-54.44900131225586 -88.89900207519531,-54.44900131225586 -88.89900207519531,-54.44900131225586z M-89.64700317382812,-6.388999938964844 C-89.64700317382812,-6.388999938964844 -64.22000122070312,37.652000427246094 -64.22000122070312,37.652000427246094 C-64.22000122070312,37.652000427246094 -108.26100158691406,63.07899856567383 -108.26100158691406,63.07899856567383 C-108.26100158691406,63.07899856567383 -133.68800354003906,19.038000106811523 -133.68800354003906,19.038000106811523 C-133.68800354003906,19.038000106811523 -89.64700317382812,-6.388999938964844 -89.64700317382812,-6.388999938964844z M-66.26499938964844,35.60599899291992 C-66.26499938964844,35.60599899291992 -22.225000381469727,61.03300094604492 -22.225000381469727,61.03300094604492 C-22.225000381469727,61.03300094604492 -47.652000427246094,105.0739974975586 -47.652000427246094,105.0739974975586 C-47.652000427246094,105.0739974975586 -91.69300079345703,79.64700317382812 -91.69300079345703,79.64700317382812 C-91.69300079345703,79.64700317382812 -66.26499938964844,35.60599899291992 -66.26499938964844,35.60599899291992z M-25.018999099731445,60.28499984741211 C-25.018999099731445,60.28499984741211 25.836000442504883,60.28499984741211 25.836000442504883,60.28499984741211 C25.836000442504883,60.28499984741211 25.836000442504883,111.13899993896484 25.836000442504883,111.13899993896484 C25.836000442504883,111.13899993896484 -25.018999099731445,111.13899993896484 -25.018999099731445,111.13899993896484 C-25.018999099731445,111.13899993896484 -25.018999099731445,60.28499984741211 -25.018999099731445,60.28499984741211z M23.04199981689453,61.03300094604492 C23.04199981689453,61.03300094604492 67.08300018310547,35.60599899291992 67.08300018310547,35.60599899291992 C67.08300018310547,35.60599899291992 92.51000213623047,79.64700317382812 92.51000213623047,79.64700317382812 C92.51000213623047,79.64700317382812 48.46900177001953,105.0739974975586 48.46900177001953,105.0739974975586 C48.46900177001953,105.0739974975586 23.04199981689453,61.03300094604492 23.04199981689453,61.03300094604492z M65.03700256347656,37.652000427246094 C65.03700256347656,37.652000427246094 90.46399688720703,-6.388999938964844 90.46399688720703,-6.388999938964844 C90.46399688720703,-6.388999938964844 134.5050048828125,19.038000106811523 134.5050048828125,19.038000106811523 C134.5050048828125,19.038000106811523 109.0780029296875,63.07899856567383 109.0780029296875,63.07899856567383 C109.0780029296875,63.07899856567383 65.03700256347656,37.652000427246094 65.03700256347656,37.652000427246094z M89.71600341796875,-3.5950000286102295 C89.71600341796875,-3.5950000286102295 89.71600341796875,-54.44900131225586 89.71600341796875,-54.44900131225586 C89.71600341796875,-54.44900131225586 140.57000732421875,-54.44900131225586 140.57000732421875,-54.44900131225586 C140.57000732421875,-54.44900131225586 140.57000732421875,-3.5950000286102295 140.57000732421875,-3.5950000286102295 C140.57000732421875,-3.5950000286102295 89.71600341796875,-3.5950000286102295 89.71600341796875,-3.5950000286102295z M90.46399688720703,-51.654998779296875 C90.46399688720703,-51.654998779296875 65.03700256347656,-95.69599914550781 65.03700256347656,-95.69599914550781 C65.03700256347656,-95.69599914550781 109.0780029296875,-121.12300109863281 109.0780029296875,-121.12300109863281 C109.0780029296875,-121.12300109863281 134.5050048828125,-77.08200073242188 134.5050048828125,-77.08200073242188 C134.5050048828125,-77.08200073242188 90.46399688720703,-51.654998779296875 90.46399688720703,-51.654998779296875z M67.08300018310547,-93.6510009765625 C67.08300018310547,-93.6510009765625 23.04199981689453,-119.0780029296875 23.04199981689453,-119.0780029296875 C23.04199981689453,-119.0780029296875 48.46900177001953,-163.11900329589844 48.46900177001953,-163.11900329589844 C48.46900177001953,-163.11900329589844 92.51000213623047,-137.69200134277344 92.51000213623047,-137.69200134277344 C92.51000213623047,-137.69200134277344 67.08300018310547,-93.6510009765625 67.08300018310547,-93.6510009765625z"></path></g></g></g><g transform="matrix(0.9961947202682495,-0.08715574443340302,0.08715574443340302,0.9961947202682495,252.20498657226562,247.8662109375)" opacity="1" style="display: block;"><g opacity="1" transform="matrix(1,0,0,1,0,0)"><path stroke-linecap="round" stroke-linejoin="round" fill-opacity="0" stroke="#343a40" stroke-opacity="1" stroke-width="18" d=" M53.28900146484375,-29.02199935913086 C53.28900146484375,0.18299999833106995 29.61400032043457,23.858999252319336 0.4090000092983246,23.858999252319336 C-28.79599952697754,23.858999252319336 -52.47200012207031,0.18299999833106995 -52.47200012207031,-29.02199935913086 C-52.47200012207031,-58.22700119018555 -28.79599952697754,-81.90299987792969 0.4090000092983246,-81.90299987792969 C29.61400032043457,-81.90299987792969 53.28900146484375,-58.22700119018555 53.28900146484375,-29.02199935913086z"></path></g><g opacity="1" transform="matrix(1,0,0,1,0,0)"><path stroke-linecap="round" stroke-linejoin="round" fill-opacity="0" stroke="#343a40" stroke-opacity="1" stroke-width="18" d=" M96.90399932861328,-29.02199935913086 C96.90399932861328,24.270999908447266 53.70199966430664,67.4729995727539 0.4090000092983246,67.4729995727539 C-52.88399887084961,67.4729995727539 -96.08699798583984,24.270999908447266 -96.08699798583984,-29.02199935913086 C-96.08699798583984,-82.31500244140625 -52.88399887084961,-125.51699829101562 0.4090000092983246,-125.51699829101562 C53.70199966430664,-125.51699829101562 96.90399932861328,-82.31500244140625 96.90399932861328,-29.02199935913086z"></path></g></g><g transform="matrix(1,0,0,1,250,250)" opacity="1" style="display: block;"></g></g></svg>