<svg xmlns="http://www.w3.org/2000/svg" viewBox="0 0 500 500" width="500" height="500" preserveAspectRatio="xMidYMid meet" style="width: 100%; height: 100%; transform: translate3d(0px, 0px, 0px);"><defs><clipPath id="__lottie_element_51"><rect width="500" height="500" x="0" y="0"></rect></clipPath></defs><g clip-path="url(#__lottie_element_51)"><g transform="matrix(4.5,0,0,4.5,257.382080078125,265.1568603515625)" opacity="1" style="display: block;"><g opacity="1" transform="matrix(1,0,0,1,0,0)"><path stroke-linecap="round" stroke-linejoin="round" fill-opacity="0" stroke="rgb(130,0,159)" stroke-opacity="1" stroke-width="4" d=" M40.75,0 C40.75,22.690000534057617 22.35700035095215,41.08300018310547 -0.3330000042915344,41.08300018310547 C-23.023000717163086,41.08300018310547 -41.41699981689453,22.690000534057617 -41.41699981689453,0 C-41.41699981689453,-22.690000534057617 -23.023000717163086,-41.08300018310547 -0.3330000042915344,-41.08300018310547 C22.35700035095215,-41.08300018310547 40.75,-22.690000534057617 40.75,0z"></path></g></g><g transform="matrix(4.4655256271362305,-0.5559836626052856,0.5559836626052856,4.4655256271362305,262.6141662597656,259.2037048339844)" opacity="1" style="display: block;"><g opacity="1" transform="matrix(1,0,0,1,-0.125,21.625)"><path fill="rgb(130,0,159)" fill-opacity="1" d=" M0,-9.33365535736084 C3.4892044067382812,-9.33365535736084 6.322167873382568,-5.151244163513184 6.322167873382568,0 C6.322167873382568,5.151244163513184 3.4892044067382812,9.33365535736084 0,9.33365535736084 C-3.4892044067382812,9.33365535736084 -6.322167873382568,5.151244163513184 -6.322167873382568,0 C-6.322167873382568,-5.151244163513184 -3.4892044067382812,-9.33365535736084 0,-9.33365535736084z"></path><path stroke-linecap="round" stroke-linejoin="round" fill-opacity="0" stroke="rgb(130,0,159)" stroke-opacity="1" stroke-width="4" d=" M0,-9.33365535736084 C3.4892044067382812,-9.33365535736084 6.322167873382568,-5.151244163513184 6.322167873382568,0 C6.322167873382568,5.151244163513184 3.4892044067382812,9.33365535736084 0,9.33365535736084 C-3.4892044067382812,9.33365535736084 -6.322167873382568,5.151244163513184 -6.322167873382568,0 C-6.322167873382568,-5.151244163513184 -3.4892044067382812,-9.33365535736084 0,-9.33365535736084z"></path><path fill="rgb(130,0,159)" fill-opacity="1" d=" M0,-9.33365535736084 C3.4892044067382812,-9.33365535736084 6.322167873382568,-5.151244163513184 6.322167873382568,0 C6.322167873382568,5.151244163513184 3.4892044067382812,9.33365535736084 0,9.33365535736084 C-3.4892044067382812,9.33365535736084 -6.322167873382568,5.151244163513184 -6.322167873382568,0 C-6.322167873382568,-5.151244163513184 -3.4892044067382812,-9.33365535736084 0,-9.33365535736084z"></path></g></g><g transform="matrix(4.4655256271362305,-0.5559836626052856,0.5559836626052856,4.4655256271362305,266.1830749511719,282.3618469238281)" opacity="1" style="display: block;"><g opacity="1" transform="matrix(-1,0,0,1,0,0)"><g opacity="1" transform="matrix(1,0,0,1.399999976158142,-15.187999725341797,-9.812999725341797)"><path fill="rgb(130,0,159)" fill-opacity="1" d=" M0,-4 C2.2076001167297363,-4 4,-2.2076001167297363 4,0 C4,2.2076001167297363 2.2076001167297363,4 0,4 C-2.2076001167297363,4 -4,2.2076001167297363 -4,0 C-4,-2.2076001167297363 -2.2076001167297363,-4 0,-4z"></path></g><path stroke-linecap="round" stroke-linejoin="round" fill-opacity="0" stroke="rgb(247,52,94)" stroke-opacity="1" stroke-width="4" d=" M-14.748836517333984,-28.998214721679688 C-14.748836517333984,-28.998214721679688 -22.165699005126953,-25.3747501373291 -23.75,-18.875"></path><g opacity="1" transform="matrix(1,0,0,1,0,0)"></g></g><g opacity="1" transform="matrix(1,0,0,1,0,0)"><g opacity="1" transform="matrix(1,0,0,1.399999976158142,-15.187999725341797,-9.812999725341797)"><path fill="rgb(130,0,159)" fill-opacity="1" d=" M0,-4 C2.2076001167297363,-4 4,-2.2076001167297363 4,0 C4,2.2076001167297363 2.2076001167297363,4 0,4 C-2.2076001167297363,4 -4,2.2076001167297363 -4,0 C-4,-2.2076001167297363 -2.2076001167297363,-4 0,-4z"></path></g><path stroke-linecap="round" stroke-linejoin="round" fill-opacity="0" stroke="rgb(247,52,94)" stroke-opacity="1" stroke-width="4" d=" M-14.748836517333984,-28.998214721679688 C-14.748836517333984,-28.998214721679688 -22.165699005126953,-25.3747501373291 -23.75,-18.875"></path><g opacity="1" transform="matrix(1,0,0,1,0,0)"></g></g></g></g></svg>