<svg xmlns="http://www.w3.org/2000/svg" viewBox="0 0 500 500" width="500" height="500" preserveAspectRatio="xMidYMid meet" style="width: 100%; height: 100%; transform: translate3d(0px, 0px, 0px);"><defs><clipPath id="__lottie_element_2"><rect width="500" height="500" x="0" y="0"></rect></clipPath></defs><g clip-path="url(#__lottie_element_2)"><g transform="matrix(0.9891641736030579,0.14681345224380493,-0.14681345224380493,0.9891641736030579,257.2158203125,221.3649139404297)" opacity="1" style="display: block;"><g opacity="1" transform="matrix(1,0,0,1,0,0)"><path stroke-linecap="round" stroke-linejoin="round" fill-opacity="0" stroke="#343a40" stroke-opacity="1" stroke-width="18" d=" M-103.85299682617188,-117.4000015258789 C-103.85299682617188,-117.4000015258789 -145.87399291992188,-117.4000015258789 -145.87399291992188,-117.4000015258789 C-145.87399291992188,-117.4000015258789 -158.07000732421875,-11.515000343322754 -60.88399887084961,4.4029998779296875 M113.64700317382812,-168.6020050048828 C113.64700317382812,-168.6020050048828 113.64700317382812,-149.57699584960938 113.64700317382812,-149.57699584960938 C113.64700317382812,-149.57699584960938 104.99199676513672,-149.57699584960938 104.99199676513672,-149.57699584960938 C104.99199676513672,-149.57699584960938 124.9020004272461,25.631000518798828 1.128000020980835,25.631000518798828 C-122.64600372314453,25.631000518798828 -102.73600006103516,-149.57699584960938 -102.73600006103516,-149.57699584960938 C-102.73600006103516,-149.57699584960938 -111.39099884033203,-149.57699584960938 -111.39099884033203,-149.57699584960938 C-111.39099884033203,-149.57699584960938 -111.39099884033203,-168.6020050048828 -111.39099884033203,-168.6020050048828 C-111.39099884033203,-168.6020050048828 113.64700317382812,-168.6020050048828 113.64700317382812,-168.6020050048828z M106.10900115966797,-117.4000015258789 C106.10900115966797,-117.4000015258789 148.1300048828125,-117.4000015258789 148.1300048828125,-117.4000015258789 C148.1300048828125,-117.4000015258789 160.3260040283203,-11.515000343322754 63.13999938964844,4.4029998779296875 M17.775999069213867,24.607999801635742 C17.775999069213867,24.607999801635742 17.80299949645996,39.816001892089844 17.80299949645996,39.816001892089844 C17.80299949645996,39.816001892089844 -18.533000946044922,39.816001892089844 -18.533000946044922,39.816001892089844 C-18.533000946044922,39.816001892089844 -18.55900001525879,24.607999801635742 -18.55900001525879,24.607999801635742 M-36.03900146484375,87.10399627685547 C-36.03900146484375,87.10399627685547 -36.03900146484375,87.10399627685547 -36.03900146484375,87.10399627685547 C-36.03900146484375,74.0459976196289 -25.45400047302246,63.46099853515625 -12.395999908447266,63.46099853515625 C-12.395999908447266,63.46099853515625 11.661999702453613,63.46099853515625 11.661999702453613,63.46099853515625 C24.719999313354492,63.46099853515625 35.30500030517578,74.0459976196289 35.30500030517578,87.10399627685547 C35.30500030517578,87.10399627685547 35.30500030517578,87.10399627685547 35.30500030517578,87.10399627685547 M74.46299743652344,168.64999389648438 C74.46299743652344,168.64999389648438 -74.197998046875,168.64999389648438 -74.197998046875,168.64999389648438 C-74.197998046875,168.64999389648438 -74.197998046875,87.10399627685547 -74.197998046875,87.10399627685547 C-74.197998046875,87.10399627685547 74.46299743652344,87.10399627685547 74.46299743652344,87.10399627685547 C74.46299743652344,87.10399627685547 74.46299743652344,168.64999389648438 74.46299743652344,168.64999389648438z M0.13199999928474426,39.816001892089844 C0.13199999928474426,39.816001892089844 0.13199999928474426,63.46099853515625 0.13199999928474426,63.46099853515625"></path></g><g opacity="1" transform="matrix(1,0,0,1,0,0)"><path stroke-linecap="round" stroke-linejoin="round" fill-opacity="0" stroke="#343a40" stroke-opacity="1" stroke-width="18" d=" M35.82600021362305,116.63800048828125 C35.82600021362305,116.63800048828125 -35.946998596191406,116.63800048828125 -35.946998596191406,116.63800048828125 M18.826000213623047,140.13800048828125 C18.826000213623047,140.13800048828125 -18.94700050354004,140.13800048828125 -18.94700050354004,140.13800048828125 M1.5,-134.7530059814453 C1.5,-134.7530059814453 -12.769000053405762,-105.84200286865234 -12.769000053405762,-105.84200286865234 C-12.769000053405762,-105.84200286865234 -44.67399978637695,-101.20600128173828 -44.67399978637695,-101.20600128173828 C-44.67399978637695,-101.20600128173828 -21.586999893188477,-78.70099639892578 -21.586999893188477,-78.70099639892578 C-21.586999893188477,-78.70099639892578 -27.03700065612793,-46.92399978637695 -27.03700065612793,-46.92399978637695 C-27.03700065612793,-46.92399978637695 1.5,-61.926998138427734 1.5,-61.926998138427734 C1.5,-61.926998138427734 30.03700065612793,-46.92399978637695 30.03700065612793,-46.92399978637695 C30.03700065612793,-46.92399978637695 24.586999893188477,-78.70099639892578 24.586999893188477,-78.70099639892578 C24.586999893188477,-78.70099639892578 47.67399978637695,-101.20600128173828 47.67399978637695,-101.20600128173828 C47.67399978637695,-101.20600128173828 15.769000053405762,-105.84200286865234 15.769000053405762,-105.84200286865234 C15.769000053405762,-105.84200286865234 1.5,-134.7530059814453 1.5,-134.7530059814453z"></path></g></g></g></svg>