<svg xmlns="http://www.w3.org/2000/svg" viewBox="0 0 500 500" width="500" height="500" preserveAspectRatio="xMidYMid meet" style="width: 100%; height: 100%; transform: translate3d(0px, 0px, 0px);"><defs><clipPath id="__lottie_element_124"><rect width="500" height="500" x="0" y="0"></rect></clipPath></defs><g clip-path="url(#__lottie_element_124)"><g transform="matrix(1,0,0,1,250.1510009765625,248.8179931640625)" opacity="1" style="display: block;"><g opacity="1" transform="matrix(1,0,0,1,0,0)"><path stroke-linecap="round" stroke-linejoin="round" fill-opacity="0" stroke="#343a40" stroke-opacity="1" stroke-width="18" d=" M-166.7050018310547,83.03500366210938 C-166.7050018310547,83.03500366210938 -140.36099243164062,83.03500366210938 -140.36099243164062,83.03500366210938 M168.43299865722656,83.03500366210938 C168.43299865722656,83.03500366210938 142.08799743652344,83.03500366210938 142.08799743652344,83.03500366210938 M145.98300170898438,-0.75 C145.98300170898438,-0.75 123.16799926757812,12.42300033569336 123.16799926757812,12.42300033569336 M84.64800262451172,-62.08399963378906 C84.64800262451172,-62.08399963378906 71.47599792480469,-39.26900100708008 71.47599792480469,-39.26900100708008 M0.8640000224113464,-84.53399658203125 C0.8640000224113464,-84.53399658203125 0.8640000224113464,-58.189998626708984 0.8640000224113464,-58.189998626708984 M-82.9209976196289,-62.08399963378906 C-82.9209976196289,-62.08399963378906 -69.74800109863281,-39.26900100708008 -69.74800109863281,-39.26900100708008 M-144.2550048828125,-0.75 C-144.2550048828125,-0.75 -121.44000244140625,12.42300033569336 -121.44000244140625,12.42300033569336 M187.08299255371094,111.09700012207031 C187.08299255371094,111.09700012207031 -185.3560028076172,111.09700012207031 -185.3560028076172,111.09700012207031 C-186.72900390625,101.94400024414062 -187.43499755859375,92.58100128173828 -187.43499755859375,83.03500366210938 C-187.43499755859375,-20.961000442504883 -103.13200378417969,-105.26399993896484 0.8640000224113464,-105.26399993896484 C104.86000061035156,-105.26399993896484 189.16299438476562,-20.961000442504883 189.16299438476562,83.03500366210938 C189.16299438476562,92.58100128173828 188.45599365234375,101.94400024414062 187.08299255371094,111.09700012207031z"></path></g></g><g transform="matrix(0.21487820148468018,0.9766408801078796,-0.9766408801078796,0.21487820148468018,331.9247131347656,313.1667785644531)" opacity="1" style="display: block;"><g opacity="1" transform="matrix(1,0,0,1,0,0)"><path stroke-linecap="round" stroke-linejoin="round" fill-opacity="0" stroke="#343a40" stroke-opacity="1" stroke-width="18" d=" M9.50100040435791,83.03500366210938 C9.50100040435791,87.80500030517578 5.633999824523926,91.6719970703125 0.8640000224113464,91.6719970703125 C-3.9059998989105225,91.6719970703125 -7.7729997634887695,87.80500030517578 -7.7729997634887695,83.03500366210938 C-7.7729997634887695,78.26499938964844 -3.9059998989105225,74.39800262451172 0.8640000224113464,74.39800262451172 C5.633999824523926,74.39800262451172 9.50100040435791,78.26499938964844 9.50100040435791,83.03500366210938z M0.8700000047683716,74.39800262451172 C0.8700000047683716,74.39800262451172 -108.24500274658203,82.88800048828125 -108.24500274658203,82.88800048828125 C-108.24500274658203,82.88800048828125 0.8640000224113464,91.6719970703125 0.8640000224113464,91.6719970703125"></path></g></g></g></svg>