<svg xmlns="http://www.w3.org/2000/svg" viewBox="0 0 500 500" width="500" height="500" preserveAspectRatio="xMidYMid meet" style="width: 100%; height: 100%; transform: translate3d(0px, 0px, 0px);"><defs><clipPath id="__lottie_element_66"><rect width="500" height="500" x="0" y="0"></rect></clipPath><mask id="__lottie_element_72" mask-type="alpha"><g transform="matrix(3.740000009536743,0,0,3.740000009536743,250,283.6600036621094)" opacity="1" style="display: block;"><path fill="#343a40" fill-opacity="1" d=" M42.39,-38.47 C42.39,-38.47 -42.52,-38.43 -42.52,-38.43 C-42.52,-38.43 -42.52,20.46 -42.52,20.46 C-42.52,20.46 42.41,20.42 42.41,20.42 C42.41,20.42 42.39,-38.47 42.39,-38.47z"></path><g opacity="1" transform="matrix(1,0,0,1,19.5,19.375)"><path fill="rgb(19,20,50)" fill-opacity="0" d=" M22.891000747680664,-57.84700012207031 C22.891000747680664,-57.84700012207031 -62.02299880981445,-57.80799865722656 -62.02299880981445,-57.80799865722656 C-62.02299880981445,-57.80799865722656 -62.02299880981445,1.0809999704360962 -62.02299880981445,1.0809999704360962 C-62.02299880981445,1.0809999704360962 22.9060001373291,1.0420000553131104 22.9060001373291,1.0420000553131104 C22.9060001373291,1.0420000553131104 22.891000747680664,-57.84700012207031 22.891000747680664,-57.84700012207031z"></path><path stroke-linecap="butt" stroke-linejoin="miter" fill-opacity="0" stroke-miterlimit="4" stroke="rgb(19,20,50)" stroke-opacity="1" stroke-width="0" d=" M22.891000747680664,-57.84700012207031 C22.891000747680664,-57.84700012207031 -62.02299880981445,-57.80799865722656 -62.02299880981445,-57.80799865722656 C-62.02299880981445,-57.80799865722656 -62.02299880981445,1.0809999704360962 -62.02299880981445,1.0809999704360962 C-62.02299880981445,1.0809999704360962 22.9060001373291,1.0420000553131104 22.9060001373291,1.0420000553131104 C22.9060001373291,1.0420000553131104 22.891000747680664,-57.84700012207031 22.891000747680664,-57.84700012207031z"></path></g></g></mask></defs><g clip-path="url(#__lottie_element_66)"><g mask="url(#__lottie_element_72)" style="display: block;"><g transform="matrix(3.740000009536743,0,0,3.740000009536743,250,357.0852966308594)" opacity="1"><g opacity="1" transform="matrix(1,0,0,1,0,0)"><g opacity="1" transform="matrix(1,0,0,1,0,-21.33300018310547)"><path fill="rgb(19,20,50)" fill-opacity="0" d=" M-25.5,-17.16699981689453 C-25.5,-17.16699981689453 -42,-17.16699981689453 -42,-17.16699981689453 M-25.5,2.2079999446868896 C-25.5,2.2079999446868896 -42,2.2079999446868896 -42,2.2079999446868896 M-25.5,22.145999908447266 C-25.5,22.145999908447266 -42,22.145999908447266 -42,22.145999908447266 M-25.5,41.895999908447266 C-25.5,41.895999908447266 -42,41.895999908447266 -42,41.895999908447266"></path><path stroke-linecap="round" stroke-linejoin="round" fill-opacity="0" stroke="#343a40" stroke-opacity="1" stroke-width="5" d=" M-25.5,-17.16699981689453 C-25.5,-17.16699981689453 -42,-17.16699981689453 -42,-17.16699981689453 M-25.5,2.2079999446868896 C-25.5,2.2079999446868896 -42,2.2079999446868896 -42,2.2079999446868896 M-25.5,22.145999908447266 C-25.5,22.145999908447266 -42,22.145999908447266 -42,22.145999908447266 M-25.5,41.895999908447266 C-25.5,41.895999908447266 -42,41.895999908447266 -42,41.895999908447266"></path></g><g opacity="1" transform="matrix(1,0,0,1,67.5,-21.33300018310547)"><path fill="rgb(19,20,50)" fill-opacity="0" d=" M-25.5,-17.16699981689453 C-25.5,-17.16699981689453 -42,-17.16699981689453 -42,-17.16699981689453 M-25.5,2.2079999446868896 C-25.5,2.2079999446868896 -42,2.2079999446868896 -42,2.2079999446868896 M-25.5,22.145999908447266 C-25.5,22.145999908447266 -42,22.145999908447266 -42,22.145999908447266 M-25.5,41.895999908447266 C-25.5,41.895999908447266 -42,41.895999908447266 -42,41.895999908447266"></path><path stroke-linecap="round" stroke-linejoin="round" fill-opacity="0" stroke="#343a40" stroke-opacity="1" stroke-width="5" d=" M-25.5,-17.16699981689453 C-25.5,-17.16699981689453 -42,-17.16699981689453 -42,-17.16699981689453 M-25.5,2.2079999446868896 C-25.5,2.2079999446868896 -42,2.2079999446868896 -42,2.2079999446868896 M-25.5,22.145999908447266 C-25.5,22.145999908447266 -42,22.145999908447266 -42,22.145999908447266 M-25.5,41.895999908447266 C-25.5,41.895999908447266 -42,41.895999908447266 -42,41.895999908447266"></path></g><g opacity="1" transform="matrix(1,0,0,1,19.5,19.375)"><path fill="rgb(19,20,50)" fill-opacity="0" d=" M6.057000160217285,-57.80500030517578 C6.057000160217285,-57.80500030517578 -44.96799850463867,-57.72700119018555 -44.96799850463867,-57.72700119018555 C-44.96799850463867,-57.72700119018555 -44.96799850463867,1.1619999408721924 -44.96799850463867,1.1619999408721924 C-44.96799850463867,1.1619999408721924 6.072999954223633,1.0839999914169312 6.072999954223633,1.0839999914169312 C6.072999954223633,1.0839999914169312 6.057000160217285,-57.80500030517578 6.057000160217285,-57.80500030517578z"></path><path stroke-linecap="round" stroke-linejoin="round" fill-opacity="0" stroke="#343a40" stroke-opacity="1" stroke-width="5" d=" M6.057000160217285,-57.80500030517578 C6.057000160217285,-57.80500030517578 -44.96799850463867,-57.72700119018555 -44.96799850463867,-57.72700119018555 C-44.96799850463867,-57.72700119018555 -44.96799850463867,1.1619999408721924 -44.96799850463867,1.1619999408721924 C-44.96799850463867,1.1619999408721924 6.072999954223633,1.0839999914169312 6.072999954223633,1.0839999914169312 C6.072999954223633,1.0839999914169312 6.057000160217285,-57.80500030517578 6.057000160217285,-57.80500030517578z"></path></g><g opacity="1" transform="matrix(1,0,0,1,19.5,19.375)"><path stroke-linecap="round" stroke-linejoin="round" fill-opacity="0" stroke="#343a40" stroke-opacity="1" stroke-width="5" d=" M-24,-39.625 C-24,-39.625 -24,-16.625 -24,-16.625 C-24,-16.625 -12.5,-28.413000106811523 -12.5,-28.413000106811523 C-12.5,-28.413000106811523 -24,-39.625 -24,-39.625z"></path></g></g><g opacity="1" transform="matrix(1,0,0,1,0,-59.25)"><g opacity="1" transform="matrix(1,0,0,1,0,-21.33300018310547)"><path fill="rgb(19,20,50)" fill-opacity="0" d=" M-25.5,-17.16699981689453 C-25.5,-17.16699981689453 -42,-17.16699981689453 -42,-17.16699981689453 M-25.5,2.2079999446868896 C-25.5,2.2079999446868896 -42,2.2079999446868896 -42,2.2079999446868896 M-25.5,22.145999908447266 C-25.5,22.145999908447266 -42,22.145999908447266 -42,22.145999908447266 M-25.5,41.895999908447266 C-25.5,41.895999908447266 -42,41.895999908447266 -42,41.895999908447266"></path><path stroke-linecap="round" stroke-linejoin="round" fill-opacity="0" stroke="#343a40" stroke-opacity="1" stroke-width="5" d=" M-25.5,-17.16699981689453 C-25.5,-17.16699981689453 -42,-17.16699981689453 -42,-17.16699981689453 M-25.5,2.2079999446868896 C-25.5,2.2079999446868896 -42,2.2079999446868896 -42,2.2079999446868896 M-25.5,22.145999908447266 C-25.5,22.145999908447266 -42,22.145999908447266 -42,22.145999908447266 M-25.5,41.895999908447266 C-25.5,41.895999908447266 -42,41.895999908447266 -42,41.895999908447266"></path></g><g opacity="1" transform="matrix(1,0,0,1,67.5,-21.33300018310547)"><path fill="rgb(19,20,50)" fill-opacity="0" d=" M-25.5,-17.16699981689453 C-25.5,-17.16699981689453 -42,-17.16699981689453 -42,-17.16699981689453 M-25.5,2.2079999446868896 C-25.5,2.2079999446868896 -42,2.2079999446868896 -42,2.2079999446868896 M-25.5,22.145999908447266 C-25.5,22.145999908447266 -42,22.145999908447266 -42,22.145999908447266 M-25.5,41.895999908447266 C-25.5,41.895999908447266 -42,41.895999908447266 -42,41.895999908447266"></path><path stroke-linecap="round" stroke-linejoin="round" fill-opacity="0" stroke="#343a40" stroke-opacity="1" stroke-width="5" d=" M-25.5,-17.16699981689453 C-25.5,-17.16699981689453 -42,-17.16699981689453 -42,-17.16699981689453 M-25.5,2.2079999446868896 C-25.5,2.2079999446868896 -42,2.2079999446868896 -42,2.2079999446868896 M-25.5,22.145999908447266 C-25.5,22.145999908447266 -42,22.145999908447266 -42,22.145999908447266 M-25.5,41.895999908447266 C-25.5,41.895999908447266 -42,41.895999908447266 -42,41.895999908447266"></path></g><g opacity="1" transform="matrix(1,0,0,1,19.5,19.375)"><path fill="rgb(19,20,50)" fill-opacity="0" d=" M6.057000160217285,-57.80500030517578 C6.057000160217285,-57.80500030517578 -44.96799850463867,-57.72700119018555 -44.96799850463867,-57.72700119018555 C-44.96799850463867,-57.72700119018555 -44.96799850463867,1.1619999408721924 -44.96799850463867,1.1619999408721924 C-44.96799850463867,1.1619999408721924 6.072999954223633,1.0839999914169312 6.072999954223633,1.0839999914169312 C6.072999954223633,1.0839999914169312 6.057000160217285,-57.80500030517578 6.057000160217285,-57.80500030517578z"></path><path stroke-linecap="round" stroke-linejoin="round" fill-opacity="0" stroke="#343a40" stroke-opacity="1" stroke-width="5" d=" M6.057000160217285,-57.80500030517578 C6.057000160217285,-57.80500030517578 -44.96799850463867,-57.72700119018555 -44.96799850463867,-57.72700119018555 C-44.96799850463867,-57.72700119018555 -44.96799850463867,1.1619999408721924 -44.96799850463867,1.1619999408721924 C-44.96799850463867,1.1619999408721924 6.072999954223633,1.0839999914169312 6.072999954223633,1.0839999914169312 C6.072999954223633,1.0839999914169312 6.057000160217285,-57.80500030517578 6.057000160217285,-57.80500030517578z"></path></g><g opacity="1" transform="matrix(1,0,0,1,19.5,19.375)"><path stroke-linecap="round" stroke-linejoin="round" fill-opacity="0" stroke="#343a40" stroke-opacity="1" stroke-width="5" d=" M-24,-39.625 C-24,-39.625 -24,-16.625 -24,-16.625 C-24,-16.625 -12.5,-28.413000106811523 -12.5,-28.413000106811523 C-12.5,-28.413000106811523 -24,-39.625 -24,-39.625z"></path></g></g></g></g><g transform="matrix(3.740000009536743,0,0,3.740000009536743,250,283.6600036621094)" opacity="1" style="display: block;"><g opacity="1" transform="matrix(1,0,0,1,19.5,19.375)"><path fill="rgb(19,20,50)" fill-opacity="0" d=" M22.891000747680664,-57.84700012207031 C22.891000747680664,-57.84700012207031 -62.02299880981445,-57.80799865722656 -62.02299880981445,-57.80799865722656 C-62.02299880981445,-57.80799865722656 -62.02299880981445,1.0809999704360962 -62.02299880981445,1.0809999704360962 C-62.02299880981445,1.0809999704360962 22.9060001373291,1.0420000553131104 22.9060001373291,1.0420000553131104 C22.9060001373291,1.0420000553131104 22.891000747680664,-57.84700012207031 22.891000747680664,-57.84700012207031z"></path><path stroke-linecap="round" stroke-linejoin="round" fill-opacity="0" stroke="#343a40" stroke-opacity="1" stroke-width="5" d=" M22.891000747680664,-57.84700012207031 C22.891000747680664,-57.84700012207031 -62.02299880981445,-57.80799865722656 -62.02299880981445,-57.80799865722656 C-62.02299880981445,-57.80799865722656 -62.02299880981445,1.0809999704360962 -62.02299880981445,1.0809999704360962 C-62.02299880981445,1.0809999704360962 22.9060001373291,1.0420000553131104 22.9060001373291,1.0420000553131104 C22.9060001373291,1.0420000553131104 22.891000747680664,-57.84700012207031 22.891000747680664,-57.84700012207031z"></path></g></g></g></svg>