<svg xmlns="http://www.w3.org/2000/svg" viewBox="0 0 500 500" width="500" height="500" preserveAspectRatio="xMidYMid meet" style="width: 100%; height: 100%; transform: translate3d(0px, 0px, 0px);"><defs><clipPath id="__lottie_element_79"><rect width="500" height="500" x="0" y="0"></rect></clipPath></defs><g clip-path="url(#__lottie_element_79)"><g transform="matrix(3.0299999713897705,0,0,3.0299999713897705,250,250)" opacity="1" style="display: block;"><g opacity="1" transform="matrix(1,0,0,1,0,0)"><path stroke-linecap="round" stroke-linejoin="round" fill-opacity="0" stroke="rgb(130,0,159)" stroke-opacity="1" stroke-width="5.5" d=" M18.017000198364258,6.644000053405762 C18.017000198364258,6.644000053405762 18.367000579833984,6.758999824523926 18.367000579833984,6.758999824523926"></path></g></g><g transform="matrix(2.6753311157226562,-1.4224988222122192,1.4224988222122192,2.6753311157226562,193.42845153808594,219.94300842285156)" opacity="1" style="display: none;"><g opacity="1" transform="matrix(1,0,0,1,0,0)"><path stroke-linecap="round" stroke-linejoin="round" fill-opacity="0" stroke="rgb(247,52,94)" stroke-opacity="1" stroke-width="5.5" d=" M-55.40299987792969,33.63100051879883 C-55.47700119018555,33.70500183105469 -55.59600067138672,33.70500183105469 -55.66999816894531,33.63100051879883 C-55.74399948120117,33.55699920654297 -55.74399948120117,33.4370002746582 -55.66999816894531,33.362998962402344 C-55.59600067138672,33.28900146484375 -55.47700119018555,33.28900146484375 -55.40299987792969,33.362998962402344 C-55.32899856567383,33.4370002746582 -55.32899856567383,33.55699920654297 -55.40299987792969,33.63100051879883z"></path></g></g><g transform="matrix(3.0299999713897705,0,0,3.0299999713897705,250,250)" opacity="1" style="display: block;"><g opacity="1" transform="matrix(1,0,0,1,0,0)"><path stroke-linecap="round" stroke-linejoin="round" fill-opacity="0" stroke="rgb(130,0,159)" stroke-opacity="1" stroke-width="5.5" d=" M-15.977648735046387,24.141244888305664 C-15.977648735046387,24.141244888305664 18.367000579833984,6.758999824523926 18.367000579833984,6.758999824523926"></path></g></g><g transform="matrix(2.6753311157226562,-1.4224988222122192,1.4224988222122192,2.6753311157226562,193.42845153808594,219.94300842285156)" opacity="1" style="display: block;"><g opacity="1" transform="matrix(1,0,0,1,0,0)"><path stroke-linecap="round" stroke-linejoin="round" fill-opacity="0" stroke="rgb(247,52,94)" stroke-opacity="1" stroke-width="5.5" d=" M-18.883228302001953,42.3184700012207 C-25.007274627685547,48.44252014160156 -34.936729431152344,48.44252014160156 -41.0607795715332,42.3184700012207 C-47.1848258972168,36.19442367553711 -47.1848258972168,26.263967514038086 -41.0607795715332,20.13991928100586 C-34.936729431152344,14.01587200164795 -25.007274627685547,14.01587200164795 -18.883228302001953,20.13991928100586 C-12.759180068969727,26.263967514038086 -12.759180068969727,36.19442367553711 -18.883228302001953,42.3184700012207z"></path></g></g><g transform="matrix(3.0299999713897705,0,0,3.0299999713897705,250,250)" opacity="1" style="display: block;"><g opacity="1" transform="matrix(1,0,0,1,0,0)"><path stroke-linecap="round" stroke-linejoin="round" fill-opacity="0" stroke="rgb(130,0,159)" stroke-opacity="1" stroke-width="5.5" d=" M18.513999938964844,-7.295000076293945 C18.513999938964844,-7.295000076293945 18.367000579833984,-7.4079999923706055 18.367000579833984,-7.4079999923706055"></path></g></g><g transform="matrix(2.746112585067749,1.2805333137512207,-1.2805333137512207,2.746112585067749,199.1516571044922,277.82659912109375)" opacity="1" style="display: none;"><g opacity="1" transform="matrix(1,0,0,1,0,0)"><path stroke-linecap="round" stroke-linejoin="round" fill-opacity="0" stroke="rgb(247,52,94)" stroke-opacity="1" stroke-width="5.5" d=" M-54.52000045776367,-34.104000091552734 C-54.4630012512207,-34.1609992980957 -54.369998931884766,-34.1609992980957 -54.3129997253418,-34.104000091552734 C-54.25600051879883,-34.047000885009766 -54.25600051879883,-33.95399856567383 -54.3129997253418,-33.89699935913086 C-54.369998931884766,-33.84000015258789 -54.4630012512207,-33.84000015258789 -54.52000045776367,-33.89699935913086 C-54.57699966430664,-33.95399856567383 -54.57699966430664,-34.047000885009766 -54.52000045776367,-34.104000091552734z"></path></g></g><g transform="matrix(3.0299999713897705,0,0,3.0299999713897705,250,250)" opacity="1" style="display: block;"><g opacity="1" transform="matrix(1,0,0,1,0,0)"><path stroke-linecap="round" stroke-linejoin="round" fill-opacity="0" stroke="rgb(130,0,159)" stroke-opacity="1" stroke-width="5.5" d=" M-15.306646347045898,-24.450401306152344 C-15.306646347045898,-24.450401306152344 18.367000579833984,-7.4079999923706055 18.367000579833984,-7.4079999923706055"></path></g></g><g transform="matrix(2.746112585067749,1.2805333137512207,-1.2805333137512207,2.746112585067749,199.1516571044922,277.82659912109375)" opacity="1" style="display: block;"><g opacity="1" transform="matrix(1,0,0,1,0,0)"><path stroke-linecap="round" stroke-linejoin="round" fill-opacity="0" stroke="rgb(247,52,94)" stroke-opacity="1" stroke-width="5.5" d=" M-18.036516189575195,-20.976879119873047 C-24.039783477783203,-14.973611831665039 -33.773414611816406,-14.973611831665039 -39.77668380737305,-20.976879119873047 C-45.77995300292969,-26.980148315429688 -45.77995300292969,-36.71376037597656 -39.77668380737305,-42.7170295715332 C-33.773414611816406,-48.72029495239258 -24.039783477783203,-48.72029495239258 -18.036516189575195,-42.7170295715332 C-12.033247947692871,-36.71376037597656 -12.033247947692871,-26.980148315429688 -18.036516189575195,-20.976879119873047z"></path></g></g><g transform="matrix(3.029996871948242,0,0,3.029996871948242,251.51629638671875,250.00120544433594)" opacity="1" style="display: block;"><g opacity="1" transform="matrix(1,0,0,1,0,0)"><path stroke-linecap="round" stroke-linejoin="round" fill-opacity="0" stroke="rgb(247,52,94)" stroke-opacity="1" stroke-width="5.5" d=" M43.45199966430664,10.765999794006348 C37.32699966430664,16.891000747680664 27.395999908447266,16.891000747680664 21.270999908447266,10.765999794006348 C15.145999908447266,4.640999794006348 15.145999908447266,-5.289999961853027 21.270999908447266,-11.414999961853027 C27.395999908447266,-17.540000915527344 37.32699966430664,-17.540000915527344 43.45199966430664,-11.414999961853027 C49.57699966430664,-5.289999961853027 49.57699966430664,4.640999794006348 43.45199966430664,10.765999794006348z"></path></g></g></g></svg>