<svg xmlns="http://www.w3.org/2000/svg" viewBox="0 0 500 500" width="500" height="500" preserveAspectRatio="xMidYMid meet" style="width: 100%; height: 100%; transform: translate3d(0px, 0px, 0px);"><defs><clipPath id="__lottie_element_36"><rect width="500" height="500" x="0" y="0"></rect></clipPath></defs><g clip-path="url(#__lottie_element_36)"><g transform="matrix(1.0826733112335205,0,0,1.0826733112335205,250,250)" opacity="1" style="display: block;"><g opacity="1" transform="matrix(1,0,0,1,-1,-1)"><path stroke-linecap="butt" stroke-linejoin="miter" fill-opacity="0" stroke-miterlimit="4" stroke="rgb(247,52,94)" stroke-opacity="1" stroke-width="18" d=" M0,-33 C-18.225000381469727,-33 -33,-18.225000381469727 -33,0 C-33,18.225000381469727 -18.225000381469727,33 0,33 C18.225000381469727,33 33,18.225000381469727 33,0 C33,-18.225000381469727 18.225000381469727,-33 0,-33z"></path><path fill="rgb(247,52,94)" fill-opacity="1" d=" M0,-33 C-18.225000381469727,-33 -33,-18.225000381469727 -33,0 C-33,18.225000381469727 -18.225000381469727,33 0,33 C18.225000381469727,33 33,18.225000381469727 33,0 C33,-18.225000381469727 18.225000381469727,-33 0,-33z"></path></g></g><g transform="matrix(-0.8529133200645447,-0.7102546095848083,0.7102546095848083,-0.8529133200645447,250,250)" opacity="1" style="display: block;"><g opacity="1" transform="matrix(1,0,0,1,-1,-1)"><path stroke-linecap="butt" stroke-linejoin="miter" fill-opacity="0" stroke-miterlimit="4" stroke="rgb(130,0,159)" stroke-opacity="1" stroke-width="18" d=" M0,-196 C-65.72200012207031,-196 -119,-108.24800109863281 -119,0 C-119,108.24800109863281 -65.72200012207031,196 0,196 C65.72200012207031,196 119,108.24800109863281 119,0 C119,-108.24800109863281 65.72200012207031,-196 0,-196z"></path></g><g opacity="1" transform="matrix(1,0,0,1,-1,-1)"><path stroke-linecap="round" stroke-linejoin="round" fill-opacity="0" stroke-dasharray=" 0.1 1089" stroke-dashoffset="0" stroke="rgb(247,52,94)" stroke-opacity="1" stroke-width="43" d=" M97.60700225830078,-112.1500015258789 C76.09600067138672,-162.84300231933594 40.39899826049805,-196 0,-196 C0,-196 0,-196 0,-196 C-65.72200012207031,-196 -119,-108.24800109863281 -119,0 C-119,108.24800109863281 -65.72200012207031,196 0,196 C65.72200012207031,196 119,108.24800109863281 119,0 C119,-41.70800018310547 111.08999633789062,-80.3740005493164 97.60700225830078,-112.1500015258789"></path></g></g><g transform="matrix(0.9926355481147766,-0.4835403263568878,0.4835403263568878,0.9926355481147766,250,250)" opacity="1" style="display: block;"><g opacity="1" transform="matrix(1,0,0,1,-1,-1)"><path stroke-linecap="butt" stroke-linejoin="miter" fill-opacity="0" stroke-miterlimit="4" stroke="rgb(130,0,159)" stroke-opacity="1" stroke-width="18" d=" M0,-196 C-65.72200012207031,-196 -119,-108.24800109863281 -119,0 C-119,108.24800109863281 -65.72200012207031,196 0,196 C65.72200012207031,196 119,108.24800109863281 119,0 C119,-108.24800109863281 65.72200012207031,-196 0,-196z"></path></g><g opacity="1" transform="matrix(1,0,0,1,-1,-1)"><path stroke-linecap="round" stroke-linejoin="round" fill-opacity="0" stroke-dasharray=" 0.1 1089" stroke-dashoffset="0" stroke="rgb(247,52,94)" stroke-opacity="1" stroke-width="43" d=" M97.60700225830078,-112.1500015258789 C76.09600067138672,-162.84300231933594 40.39899826049805,-196 0,-196 C0,-196 0,-196 0,-196 C-65.72200012207031,-196 -119,-108.24800109863281 -119,0 C-119,108.24800109863281 -65.72200012207031,196 0,196 C65.72200012207031,196 119,108.24800109863281 119,0 C119,-41.70800018310547 111.08999633789062,-80.3740005493164 97.60700225830078,-112.1500015258789"></path></g></g><g transform="matrix(0.09083179384469986,1.0781837701797485,-1.0781837701797485,0.09083179384469986,250,250)" opacity="1" style="display: block;"><g opacity="1" transform="matrix(1,0,0,1,-1,-1)"><path stroke-linecap="butt" stroke-linejoin="miter" fill-opacity="0" stroke-miterlimit="4" stroke="rgb(130,0,159)" stroke-opacity="1" stroke-width="18" d=" M0,-196 C-65.72200012207031,-196 -119,-108.24800109863281 -119,0 C-119,108.24800109863281 -65.72200012207031,196 0,196 C65.72200012207031,196 119,108.24800109863281 119,0 C119,-108.24800109863281 65.72200012207031,-196 0,-196z"></path></g><g opacity="1" transform="matrix(1,0,0,1,-1,-1)"><path stroke-linecap="round" stroke-linejoin="round" fill-opacity="0" stroke-dasharray=" 0.1 1089" stroke-dashoffset="0" stroke="rgb(247,52,94)" stroke-opacity="1" stroke-width="43" d=" M97.60700225830078,-112.1500015258789 C76.09600067138672,-162.84300231933594 40.39899826049805,-196 0,-196 C0,-196 0,-196 0,-196 C-65.72200012207031,-196 -119,-108.24800109863281 -119,0 C-119,108.24800109863281 -65.72200012207031,196 0,196 C65.72200012207031,196 119,108.24800109863281 119,0 C119,-41.70800018310547 111.08999633789062,-80.3740005493164 97.60700225830078,-112.1500015258789"></path></g></g></g></svg>