<svg xmlns="http://www.w3.org/2000/svg" viewBox="0 0 500 500" width="500" height="500" preserveAspectRatio="xMidYMid meet" style="width: 100%; height: 100%; transform: translate3d(0px, 0px, 0px);"><defs><clipPath id="__lottie_element_30"><rect width="500" height="500" x="0" y="0"></rect></clipPath></defs><g clip-path="url(#__lottie_element_30)"><g transform="matrix(0.9992192387580872,-0.03950807824730873,0.03950807824730873,0.9992192387580872,257.51873779296875,254.06033325195312)" opacity="1" style="display: block;"><g opacity="1" transform="matrix(1,0,0,1,0,0)"><path stroke-linecap="round" stroke-linejoin="round" fill-opacity="0" stroke="#343a40" stroke-opacity="1" stroke-width="18" d=" M-41.04199981689453,-67.3550033569336 C-41.04199981689453,-67.3550033569336 -106.44999694824219,-75.5469970703125 -152.08799743652344,-29.909000396728516 C-103.6449966430664,-28.652999877929688 -85.58200073242188,-10.59000015258789 -85.58200073242188,-10.59000015258789"></path></g><g opacity="1" transform="matrix(1,0,0,1,0,0)"><path stroke-linecap="round" stroke-linejoin="round" fill-opacity="0" stroke="#343a40" stroke-opacity="1" stroke-width="18" d=" M55.191001892089844,28.878000259399414 C55.191001892089844,28.878000259399414 63.382999420166016,94.28500366210938 17.7450008392334,139.92300415039062 C16.48900032043457,91.4800033569336 -1.5750000476837158,73.41799926757812 -1.5750000476837158,73.41799926757812"></path></g><g opacity="1" transform="matrix(1,0,0,1,0,0)"><path stroke-linecap="round" stroke-linejoin="round" fill-opacity="0" stroke="#343a40" stroke-opacity="1" stroke-width="18" d=" M50.762001037597656,-21.761999130249023 C39.1349983215332,-10.135000228881836 20.284000396728516,-10.135000228881836 8.656999588012695,-21.761999130249023 C-2.9700000286102295,-33.388999938964844 -2.9700000286102295,-52.2400016784668 8.656999588012695,-63.867000579833984 C20.284000396728516,-75.49400329589844 39.1349983215332,-75.49400329589844 50.762001037597656,-63.867000579833984 C62.388999938964844,-52.2400016784668 62.388999938964844,-33.388999938964844 50.762001037597656,-21.761999130249023z"></path></g><g opacity="1" transform="matrix(1,0,0,1,0,0)"><path stroke-linecap="round" stroke-linejoin="round" fill-opacity="0" stroke="#343a40" stroke-opacity="1" stroke-width="18" d=" M-16.797000885009766,67.64199829101562 C-11.027000427246094,73.41200256347656 -1.9609999656677246,74.28800201416016 4.77400016784668,69.68000030517578 C20.714000701904297,58.77399826049805 40.15800094604492,42.02899932861328 65.37200164794922,16.815000534057617 C112.81999969482422,-30.632999420166016 135.36900329589844,-91.27999877929688 130.06300354003906,-143.16799926757812 C78.17500305175781,-148.4739990234375 17.527999877929688,-125.92500305175781 -29.920000076293945,-78.47699737548828 C-55.13399887084961,-53.26300048828125 -71.87999725341797,-33.819000244140625 -82.78600311279297,-17.878999710083008 C-87.39399719238281,-11.144000053405762 -86.51699829101562,-2.078000068664551 -80.74700164794922,3.691999912261963 C-80.74700164794922,3.691999912261963 -16.797000885009766,67.64199829101562 -16.797000885009766,67.64199829101562z"></path></g><g opacity="1" transform="matrix(1,0,0,1,0,0)"><path stroke-linecap="round" stroke-linejoin="round" fill-opacity="0" stroke="#343a40" stroke-opacity="1" stroke-width="18" d=" M-18.38800048828125,68.64399719238281 C-18.38800048828125,68.64399719238281 -33.21200180053711,73.27899932861328 -33.21200180053711,73.27899932861328 C-48.01499938964844,77.90699768066406 -64.16500091552734,73.93499755859375 -75.13200378417969,62.96799850463867 C-75.13200378417969,62.96799850463867 -75.13200378417969,62.96799850463867 -75.13200378417969,62.96799850463867 C-86.0989990234375,52.000999450683594 -90.07099914550781,35.85100173950195 -85.44300079345703,21.04800033569336 C-85.44300079345703,21.04800033569336 -80.80799865722656,6.223999977111816 -80.80799865722656,6.223999977111816"></path></g><g opacity="1" transform="matrix(1,0,0,1,0,0)"><path stroke-linecap="round" stroke-linejoin="round" fill-opacity="0" stroke="#343a40" stroke-opacity="1" stroke-width="18" d=" M50.3380012512207,-129.40699768066406 C50.3380012512207,-129.40699768066406 52.130001068115234,-109.5719985961914 74.70899963378906,-86.99299621582031 C97.28800201416016,-64.41400146484375 116.30500030517578,-63.439998626708984 116.30500030517578,-63.439998626708984"></path></g><g opacity="1" transform="matrix(1,0,0,1,0,0)"><path stroke-linecap="round" stroke-linejoin="round" fill-opacity="0" stroke="#343a40" stroke-opacity="1" stroke-width="18" d=" M-94.70185852050781,117.9476318359375 C-104.7685546875,127.80361938476562 -136.98971557617188,144.83810424804688 -160.88638305664062,147.16949462890625 C-157.4421844482422,122.70344543457031 -141.22323608398438,92.11096954345703 -131.1565399169922,82.2549819946289 C-121.08985137939453,72.39899444580078 -103.29531860351562,67.36299896240234 -91.411376953125,79.01081848144531 C-79.52743530273438,90.65863800048828 -84.63516998291016,108.09164428710938 -94.70185852050781,117.9476318359375z"></path></g></g><g transform="matrix(1,0,0,1,250,250)" opacity="1" style="display: none;"><g opacity="1" transform="matrix(1,0,0,1,0,0)"><path stroke-linecap="round" stroke-linejoin="round" fill-opacity="0" stroke="#343a40" stroke-opacity="1" stroke-width="18" d="M0 0"></path></g></g><g transform="matrix(1,0,0,1,93,-89)" opacity="1" style="display: none;"><g opacity="1" transform="matrix(1,0,0,1,0,0)"><path stroke-linecap="round" stroke-linejoin="round" fill-opacity="0" stroke="#343a40" stroke-opacity="1" stroke-width="18" d="M0 0"></path></g></g><g transform="matrix(1,0,0,1,119,-185)" opacity="1" style="display: block;"><g opacity="1" transform="matrix(1,0,0,1,0,0)"><path stroke-linecap="round" stroke-linejoin="round" fill-opacity="0" stroke="#343a40" stroke-opacity="1" stroke-width="18" d=" M133.83700561523438,100.41200256347656 C47.48099899291992,190.3090057373047 -58.154998779296875,300.2239990234375 -98.89600372314453,342.3999938964844"></path></g></g><g transform="matrix(1,0,0,1,378,340)" opacity="1" style="display: block;"><g opacity="1" transform="matrix(1,0,0,1,0,0)"><path stroke-linecap="round" stroke-linejoin="round" fill-opacity="0" stroke="#343a40" stroke-opacity="1" stroke-width="18" d=" M-34.38999938964844,278.2720031738281 C-34.69499969482422,278.5880126953125 -34.987998962402344,278.8900146484375 -35.268001556396484,279.17999267578125"></path></g></g><g transform="matrix(1,0,0,1,268,214)" opacity="1" style="display: block;"><g opacity="1" transform="matrix(1,0,0,1,0,0)"><path stroke-linecap="round" stroke-linejoin="round" fill-opacity="0" stroke="#343a40" stroke-opacity="1" stroke-width="18" d=" M230.5330047607422,0.0689999982714653 C179.29200744628906,53.99700164794922 75.2969970703125,163.41299438476562 12.312999725341797,229.45599365234375"></path></g></g><g transform="matrix(1,0,0,1,298,280)" opacity="1" style="display: block;"><g opacity="1" transform="matrix(1,0,0,1,0,0)"><path stroke-linecap="round" stroke-linejoin="round" fill-opacity="0" stroke="#343a40" stroke-opacity="1" stroke-width="18" d=" M261,-32 C261,-32 257.9519958496094,-28.791000366210938 252.468994140625,-23.018999099731445"></path></g></g><g transform="matrix(1,0,0,1,81,-161)" opacity="1" style="display: none;"><g opacity="1" transform="matrix(1,0,0,1,0,0)"><path stroke-linecap="round" stroke-linejoin="round" fill-opacity="0" stroke="#343a40" stroke-opacity="1" stroke-width="18" d="M0 0"></path></g></g><g transform="matrix(1,0,0,1,340,304)" opacity="1" style="display: none;"><g opacity="1" transform="matrix(1,0,0,1,0,0)"><path stroke-linecap="round" stroke-linejoin="round" fill-opacity="0" stroke="#343a40" stroke-opacity="1" stroke-width="18" d="M0 0"></path></g></g><g transform="matrix(1,0,0,1,-13,-45)" opacity="1" style="display: none;"><g opacity="1" transform="matrix(1,0,0,1,0,0)"><path stroke-linecap="round" stroke-linejoin="round" fill-opacity="0" stroke="#343a40" stroke-opacity="1" stroke-width="18" d="M0 0"></path></g></g></g></svg>