<svg xmlns="http://www.w3.org/2000/svg" viewBox="0 0 500 500" width="500" height="500" preserveAspectRatio="xMidYMid meet" style="width: 100%; height: 100%; transform: translate3d(0px, 0px, 0px);"><defs><clipPath id="__lottie_element_118"><rect width="500" height="500" x="0" y="0"></rect></clipPath></defs><g clip-path="url(#__lottie_element_118)"><g transform="matrix(0.37971484661102295,0.9251036047935486,-0.9251036047935486,0.37971484661102295,264.4601135253906,250)" opacity="1" style="display: block;"><g opacity="1" transform="matrix(1,0,0,1,0,0)"><path stroke-linecap="round" stroke-linejoin="round" fill-opacity="0" stroke="rgb(130,0,159)" stroke-opacity="1" stroke-width="17" d=" M112.39800262451172,0 C112.39800262451172,62.07600021362305 62.07600021362305,112.39800262451172 0,112.39800262451172 C-62.07600021362305,112.39800262451172 -112.39800262451172,62.07600021362305 -112.39800262451172,0 C-112.39800262451172,-62.07600021362305 -62.07600021362305,-112.39800262451172 0,-112.39800262451172 C62.07600021362305,-112.39800262451172 112.39800262451172,-62.07600021362305 112.39800262451172,0z M170.46299743652344,0 C170.46299743652344,94.14399719238281 94.14399719238281,170.46299743652344 0,170.46299743652344 C-94.14399719238281,170.46299743652344 -170.46299743652344,94.14399719238281 -170.46299743652344,0 C-170.46299743652344,-94.14399719238281 -94.14399719238281,-170.46299743652344 0,-170.46299743652344 C94.14399719238281,-170.46299743652344 170.46299743652344,-94.14399719238281 170.46299743652344,0z"></path></g><g opacity="1" transform="matrix(1,0,0,1,0,0)"><path stroke-linecap="round" stroke-linejoin="round" fill-opacity="0" stroke="rgb(247,52,94)" stroke-opacity="1" stroke-width="18" d=" M104.17500305175781,42.45199966430664 C109.73600006103516,28.784000396728516 112.5459976196289,14.144000053405762 112.45600128173828,-0.6100000143051147 C112.36599731445312,-15.37600040435791 109.36799621582031,-29.96500015258789 103.63200378417969,-43.56999969482422 C103.63200378417969,-43.56999969482422 157.1320037841797,-66.13500213623047 157.1320037841797,-66.13500213623047 C165.8300018310547,-45.505001068115234 170.3780059814453,-23.35700035095215 170.52000427246094,-0.9789999723434448 C170.66200256347656,21.40999984741211 166.3979949951172,43.60300064086914 157.96200561523438,64.33599853515625 C157.96200561523438,64.33599853515625 104.17500305175781,42.45199966430664 104.17500305175781,42.45199966430664z M42.45199966430664,-104.17500305175781 C28.784000396728516,-109.73600006103516 14.144000053405762,-112.5459976196289 -0.6100000143051147,-112.45600128173828 C-15.37600040435791,-112.36599731445312 -29.96500015258789,-109.36799621582031 -43.56999969482422,-103.63200378417969 C-43.56999969482422,-103.63200378417969 -66.13500213623047,-157.1320037841797 -66.13500213623047,-157.1320037841797 C-45.505001068115234,-165.8300018310547 -23.35700035095215,-170.3780059814453 -0.9789999723434448,-170.52000427246094 C21.40999984741211,-170.66200256347656 43.60300064086914,-166.3979949951172 64.33599853515625,-157.96200561523438 C64.33599853515625,-157.96200561523438 42.45199966430664,-104.17500305175781 42.45199966430664,-104.17500305175781z M-104.17500305175781,-42.45199966430664 C-109.73600006103516,-28.784000396728516 -112.5459976196289,-14.144000053405762 -112.45600128173828,0.6100000143051147 C-112.36599731445312,15.37600040435791 -109.36799621582031,29.96500015258789 -103.63200378417969,43.56999969482422 C-103.63200378417969,43.56999969482422 -157.1320037841797,66.13500213623047 -157.1320037841797,66.13500213623047 C-165.8300018310547,45.505001068115234 -170.3780059814453,23.35700035095215 -170.52000427246094,0.9789999723434448 C-170.66200256347656,-21.40999984741211 -166.3979949951172,-43.60300064086914 -157.96200561523438,-64.33599853515625 C-157.96200561523438,-64.33599853515625 -104.17500305175781,-42.45199966430664 -104.17500305175781,-42.45199966430664z M-42.45199966430664,104.17500305175781 C-28.784000396728516,109.73600006103516 -14.144000053405762,112.5459976196289 0.6100000143051147,112.45600128173828 C15.37600040435791,112.36599731445312 29.96500015258789,109.36799621582031 43.56999969482422,103.63200378417969 C43.56999969482422,103.63200378417969 66.13500213623047,157.1320037841797 66.13500213623047,157.1320037841797 C45.505001068115234,165.8300018310547 23.35700035095215,170.3780059814453 0.9789999723434448,170.52000427246094 C-21.40999984741211,170.66200256347656 -43.60300064086914,166.3979949951172 -64.33599853515625,157.96200561523438 C-64.33599853515625,157.96200561523438 -42.45199966430664,104.17500305175781 -42.45199966430664,104.17500305175781z"></path></g></g></g></svg>