<svg xmlns="http://www.w3.org/2000/svg" viewBox="0 0 500 500" width="500" height="500" preserveAspectRatio="xMidYMid meet" style="width: 100%; height: 100%; transform: translate3d(0px, 0px, 0px);"><defs><clipPath id="__lottie_element_111"><rect width="500" height="500" x="0" y="0"></rect></clipPath></defs><g clip-path="url(#__lottie_element_111)"><g transform="matrix(3.6500000953674316,0,0,3.6500000953674316,250,289.07855224609375)" opacity="1" style="display: block;"><g opacity="1" transform="matrix(1,0,0,1,0,0)"><path stroke-linecap="round" stroke-linejoin="round" fill-opacity="0" stroke="#343a40" stroke-opacity="1" stroke-width="5" d=" M38.5369987487793,-11.210000038146973 C44.9739990234375,-8.218000411987305 49.60900115966797,-6.063000202178955 49.60900115966797,-6.063000202178955 C49.60900115966797,-6.062679767608643 0,17.001323699951172 0,17.001323699951172 C0,17.001323699951172 0,17.001323699951172 0,17.001323699951172 C0,17.001323699951172 -49.60900115966797,-6.062679767608643 -49.60900115966797,-6.062679767608643 C-49.60900115966797,-6.063000202178955 -45.2760009765625,-8.07699966430664 -39.17100143432617,-10.914999961853027"></path></g></g><g transform="matrix(3.6500000953674316,0,0,3.6500000953674316,250,252.7400665283203)" opacity="1" style="display: block;"><g opacity="1" transform="matrix(1,0,0,1,0,0)"><path stroke-linecap="round" stroke-linejoin="round" fill-opacity="0" stroke="#343a40" stroke-opacity="1" stroke-width="5" d=" M44.70800018310547,-9.395999908447266 C47.731998443603516,-7.918000221252441 49.60900115966797,-7 49.60900115966797,-7 C49.60900115966797,-7.000027179718018 0,17.249649047851562 0,17.249649047851562 C0,17.249649047851562 0,17.249649047851562 0,17.249649047851562 C0,17.249649047851562 -49.60900115966797,-7.000027179718018 -49.60900115966797,-7.000027179718018 C-49.60900115966797,-7 -47.68299865722656,-7.941999912261963 -44.59000015258789,-9.454000473022461"></path></g></g><g transform="matrix(3.6500000953674316,0,0,3.6500000953674316,250,218.25888061523438)" opacity="1" style="display: block;"><g opacity="1" transform="matrix(1,0,0,1,0,0)"><path stroke-linecap="round" stroke-linejoin="round" fill-opacity="0" stroke="#343a40" stroke-opacity="1" stroke-width="5" d=" M0,16.862985610961914 C0,16.862985610961914 -49.60900115966797,-7.029770374298096 -49.60900115966797,-7.029770374298096 C-49.60900115966797,-7.029770374298096 0,-30.92252540588379 0,-30.92252540588379 C0,-30.92252540588379 49.60900115966797,-7.029770374298096 49.60900115966797,-7.029770374298096 C49.60900115966797,-7.029770374298096 0,16.862985610961914 0,16.862985610961914z"></path></g></g></g></svg>