<svg xmlns="http://www.w3.org/2000/svg" viewBox="0 0 500 500" width="500" height="500" preserveAspectRatio="xMidYMid meet" style="width: 100%; height: 100%; transform: translate3d(0px, 0px, 0px);"><defs><clipPath id="__lottie_element_16"><rect width="500" height="500" x="0" y="0"></rect></clipPath><mask id="__lottie_element_23" mask-type="alpha"><g transform="matrix(3.4499194622039795,-0.02377225272357464,0.02377225272357464,3.4499194622039795,251.07952880859375,255.84677124023438)" opacity="1" style="display: block;"><path fill="rgb(18,19,49)" fill-opacity="1" d=" M-46.547000885009766,-2.677999973297119 C-36.61970901489258,-17.51556396484375 -19.151472091674805,-27.110200881958008 0.0185272004455328,-27.110200881958008 C19.17852783203125,-27.110200881958008 36.58004379272461,-17.46621322631836 46.5629997253418,-2.677999973297119 C36.15299987792969,11.76200008392334 19.183000564575195,21.16200065612793 0.013000000268220901,21.16200065612793 C-19.156999588012695,21.16200065612793 -36.137001037597656,11.76200008392334 -46.547000885009766,-2.677999973297119z"></path><g opacity="1" transform="matrix(1,0,0,1,0,0)"><path stroke-linecap="round" stroke-linejoin="round" fill-opacity="0" stroke="rgb(130,0,159)" stroke-opacity="1" stroke-width="5" d=" M-46.547000885009766,-2.677999973297119 C-36.61970901489258,-17.51556396484375 -19.151472091674805,-27.110200881958008 0.0185272004455328,-27.110200881958008 C19.17852783203125,-27.110200881958008 36.58004379272461,-17.46621322631836 46.5629997253418,-2.677999973297119 C36.15299987792969,11.76200008392334 19.183000564575195,21.16200065612793 0.013000000268220901,21.16200065612793 C-19.156999588012695,21.16200065612793 -36.137001037597656,11.76200008392334 -46.547000885009766,-2.677999973297119z"></path></g></g></mask></defs><g clip-path="url(#__lottie_element_16)"><g mask="url(#__lottie_element_23)" style="display: block;"><g transform="matrix(3.4499194622039795,-0.02377225272357464,0.02377225272357464,3.4499194622039795,251.07801818847656,255.8475341796875)" opacity="1"><g opacity="1" transform="matrix(1,0,0,1,0,0)"><path stroke-linecap="round" stroke-linejoin="round" fill-opacity="0" stroke="rgb(247,52,94)" stroke-opacity="1" stroke-width="5" d=" M17.30299949645996,-2.5139999389648438 C17.30299949645996,7.0370001792907715 9.5600004196167,14.779999732971191 0.008999999612569809,14.779999732971191 C-9.541999816894531,14.779999732971191 -17.28499984741211,7.0370001792907715 -17.28499984741211,-2.5139999389648438 C-17.28499984741211,-12.0649995803833 -9.541999816894531,-19.808000564575195 0.008999999612569809,-19.808000564575195 C9.5600004196167,-19.808000564575195 17.30299949645996,-12.0649995803833 17.30299949645996,-2.5139999389648438z"></path></g></g></g><g transform="matrix(3.4499194622039795,-0.02377225272357464,0.02377225272357464,3.4499194622039795,251.07952880859375,255.84677124023438)" opacity="1" style="display: block;"><g opacity="1" transform="matrix(1,0,0,1,0,0)"><path stroke-linecap="round" stroke-linejoin="round" fill-opacity="0" stroke="rgb(130,0,159)" stroke-opacity="1" stroke-width="5" d=" M-46.547000885009766,-2.677999973297119 C-36.61970901489258,-17.51556396484375 -19.151472091674805,-27.110200881958008 0.0185272004455328,-27.110200881958008 C19.17852783203125,-27.110200881958008 36.58004379272461,-17.46621322631836 46.5629997253418,-2.677999973297119 C36.15299987792969,11.76200008392334 19.183000564575195,21.16200065612793 0.013000000268220901,21.16200065612793 C-19.156999588012695,21.16200065612793 -36.137001037597656,11.76200008392334 -46.547000885009766,-2.677999973297119z"></path></g></g></g></svg>